<?xml version="1.0" encoding="UTF-8"?>
<svg version="1.1" xmlns="http://www.w3.org/2000/svg" width="290" height="310">
<path d="M0 0 C95.7 0 191.4 0 290 0 C290 102.3 290 204.6 290 310 C194.3 310 98.6 310 0 310 C0 207.7 0 105.4 0 0 Z " fill="#FEFEFE" transform="translate(0,0)"/>
<path d="M0 0 C1.52669312 -0.00193359 1.52669312 -0.00193359 3.08422852 -0.00390625 C10.65695984 0.10255598 16.92004699 1.05476457 23.8125 4.375 C23.67019192 5.79202513 23.52349254 7.2086096 23.375 8.625 C23.25318359 9.80835937 23.25318359 9.80835937 23.12890625 11.015625 C22.83615007 13.19864639 22.39185581 15.2523182 21.8125 17.375 C21.1525 17.375 20.4925 17.375 19.8125 17.375 C20.3075 19.355 20.3075 19.355 20.8125 21.375 C21.38097656 21.48457031 21.94945313 21.59414062 22.53515625 21.70703125 C29.12660953 23.64037346 35.15987156 28.65254878 38.8125 34.375 C38.625 37.25 38.625 37.25 37.8125 39.375 C37.1525 39.375 36.4925 39.375 35.8125 39.375 C35.8125 40.695 35.8125 42.015 35.8125 43.375 C36.885 43.436875 37.9575 43.49875 39.0625 43.5625 C42.8125 44.375 42.8125 44.375 45.0625 46.625 C46.69184618 49.18540113 48.30669244 51.73983677 49.8125 54.375 C53.05762351 51.59346556 53.67942388 49.64115224 55.8125 45.375 C73.3025 45.375 90.7925 45.375 108.8125 45.375 C109.1425 46.365 109.4725 47.355 109.8125 48.375 C111.2046875 47.6325 111.2046875 47.6325 112.625 46.875 C117.57054843 44.76409518 122.52492766 44.75573477 127.8125 45.375 C131.5 46.875 131.5 46.875 133.8125 48.375 C134.1425 47.385 134.4725 46.395 134.8125 45.375 C137.7825 45.375 140.7525 45.375 143.8125 45.375 C143.8125 48.015 143.8125 50.655 143.8125 53.375 C145.4625 53.375 147.1125 53.375 148.8125 53.375 C148.8125 50.735 148.8125 48.095 148.8125 45.375 C150.45824566 45.34811849 152.10411413 45.32865877 153.75 45.3125 C154.66652344 45.30089844 155.58304688 45.28929687 156.52734375 45.27734375 C158.8125 45.375 158.8125 45.375 159.8125 46.375 C159.89987645 48.22869611 159.91948153 50.08567541 159.91015625 51.94140625 C159.90693359 53.06611328 159.90371094 54.19082031 159.90039062 55.34960938 C159.89201172 56.53361328 159.88363281 57.71761719 159.875 58.9375 C159.87048828 60.12537109 159.86597656 61.31324219 159.86132812 62.53710938 C159.84949675 65.48312226 159.83301287 68.42903681 159.8125 71.375 C159.1525 71.375 158.4925 71.375 157.8125 71.375 C157.84730469 72.14585937 157.88210937 72.91671875 157.91796875 73.7109375 C157.94503906 74.71382813 157.97210938 75.71671875 158 76.75 C158.03480469 77.74773437 158.06960937 78.74546875 158.10546875 79.7734375 C158.00878906 80.63195312 157.91210938 81.49046875 157.8125 82.375 C154.72361478 84.43425681 154.10314073 84.6140374 150.625 84.5 C149.366875 84.45875 148.10875 84.4175 146.8125 84.375 C146.8125 85.035 146.8125 85.695 146.8125 86.375 C144.8325 87.365 144.8325 87.365 142.8125 88.375 C142.8125 87.715 142.8125 87.055 142.8125 86.375 C141.85988281 86.31441406 140.90726563 86.25382812 139.92578125 86.19140625 C138.04439453 86.06572266 138.04439453 86.06572266 136.125 85.9375 C134.26294922 85.81568359 134.26294922 85.81568359 132.36328125 85.69140625 C129.43069663 85.43008683 126.67808383 85.02701621 123.8125 84.375 C123.4825 81.405 123.1525 78.435 122.8125 75.375 C122.1525 78.345 121.4925 81.315 120.8125 84.375 C119.18759046 84.40198189 117.56255367 84.42138757 115.9375 84.4375 C114.58011719 84.45490234 114.58011719 84.45490234 113.1953125 84.47265625 C110.8125 84.375 110.8125 84.375 108.8125 83.375 C108.1875 80.3125 108.1875 80.3125 107.8125 77.375 C106.8225 79.685 105.8325 81.995 104.8125 84.375 C97.0625 84.5 97.0625 84.5 94.8125 83.375 C94.8125 79.745 94.8125 76.115 94.8125 72.375 C89.83343741 71.62072703 89.83343741 71.62072703 84.8125 71.375 C84.8125 74.015 84.8125 76.655 84.8125 79.375 C87.1225 79.705 89.4325 80.035 91.8125 80.375 C91.8125 81.695 91.8125 83.015 91.8125 84.375 C90.00007948 84.40187279 88.18754767 84.42133715 86.375 84.4375 C85.36566406 84.44910156 84.35632813 84.46070313 83.31640625 84.47265625 C80.8125 84.375 80.8125 84.375 79.8125 83.375 C79.74044489 81.68891034 79.72863932 79.99999341 79.75 78.3125 C79.75902344 77.39339844 79.76804688 76.47429687 79.77734375 75.52734375 C79.79474609 74.46193359 79.79474609 74.46193359 79.8125 73.375 C79.1525 73.375 78.4925 73.375 77.8125 73.375 C77.874375 74.633125 77.93625 75.89125 78 77.1875 C77.97771115 79.70613951 77.94752197 81.10495606 76.8125 83.375 C73.44294301 85.05977849 70.5484887 84.67150704 66.8125 84.375 C64.8125 82.375 64.8125 82.375 64.58203125 80.5 C64.59621094 79.79875 64.61039062 79.0975 64.625 78.375 C64.63144531 77.67375 64.63789063 76.9725 64.64453125 76.25 C64.8125 74.375 64.8125 74.375 65.8125 72.375 C68.875 71.75 68.875 71.75 71.8125 71.375 C71.4825 70.715 71.1525 70.055 70.8125 69.375 C70.7408265 66.82342345 70.71941558 64.30027029 70.75 61.75 C70.75451172 61.04359375 70.75902344 60.3371875 70.76367188 59.609375 C70.77546125 57.86454725 70.79339676 56.119763 70.8125 54.375 C69.1625 54.375 67.5125 54.375 65.8125 54.375 C65.8125 59.655 65.8125 64.935 65.8125 70.375 C64.3275 70.87 64.3275 70.87 62.8125 71.375 C62.8125 75.665 62.8125 79.955 62.8125 84.375 C57.8125 83.375 57.8125 83.375 54.8125 81.375 C54.8125 82.365 54.8125 83.355 54.8125 84.375 C53.4925 84.375 52.1725 84.375 50.8125 84.375 C50.1525 83.055 49.4925 81.735 48.8125 80.375 C48.3175 81.86 48.3175 81.86 47.8125 83.375 C46.4925 83.375 45.1725 83.375 43.8125 83.375 C43.8125 82.055 43.8125 80.735 43.8125 79.375 C42.4925 79.375 41.1725 79.375 39.8125 79.375 C39.8125 81.025 39.8125 82.675 39.8125 84.375 C38.4925 84.375 37.1725 84.375 35.8125 84.375 C35.75191406 83.73691406 35.69132812 83.09882813 35.62890625 82.44140625 C35.54511719 81.61511719 35.46132812 80.78882813 35.375 79.9375 C35.29378906 79.11378906 35.21257812 78.29007812 35.12890625 77.44140625 C35.02319185 75.38837975 35.02319185 75.38837975 33.8125 74.375 C33.4825 75.035 33.1525 75.695 32.8125 76.375 C30.1725 76.375 27.5325 76.375 24.8125 76.375 C24.8125 77.365 24.8125 78.355 24.8125 79.375 C25.76125 79.354375 26.71 79.33375 27.6875 79.3125 C30.8125 79.375 30.8125 79.375 32.8125 80.375 C32.8125 81.695 32.8125 83.015 32.8125 84.375 C31.16675434 84.40188151 29.52088587 84.42134123 27.875 84.4375 C26.95847656 84.44910156 26.04195313 84.46070313 25.09765625 84.47265625 C22.8125 84.375 22.8125 84.375 21.8125 83.375 C21.74023498 81.52212498 21.7286878 79.66666122 21.75 77.8125 C21.75902344 76.80058594 21.76804687 75.78867188 21.77734375 74.74609375 C21.78894531 73.96363281 21.80054687 73.18117188 21.8125 72.375 C18.8425 72.045 15.8725 71.715 12.8125 71.375 C12.8125 65.435 12.8125 59.495 12.8125 53.375 C9.5125 53.375 6.2125 53.375 2.8125 53.375 C2.8125 54.035 2.8125 54.695 2.8125 55.375 C5.7825 55.375 8.7525 55.375 11.8125 55.375 C11.97966291 60.89137599 12.0077027 65.20981717 9.8125 70.375 C9.4825 70.705 9.1525 71.035 8.8125 71.375 C11.7825 71.705 14.7525 72.035 17.8125 72.375 C18.88646066 76.67084263 18.88579796 79.97712211 18.8125 84.375 C17.42224609 84.35759766 17.42224609 84.35759766 16.00390625 84.33984375 C14.20759766 84.32630859 14.20759766 84.32630859 12.375 84.3125 C11.18003906 84.30089844 9.98507813 84.28929687 8.75390625 84.27734375 C5.92376659 84.03598208 5.92376659 84.03598208 4.8125 85.375 C5.32425781 85.77332031 5.83601563 86.17164063 6.36328125 86.58203125 C7.8125 88.375 7.8125 88.375 7.66796875 90.63671875 C7.33732422 91.83748047 7.33732422 91.83748047 7 93.0625 C6.78730469 93.87074219 6.57460937 94.67898437 6.35546875 95.51171875 C6.17628906 96.12660156 5.99710938 96.74148437 5.8125 97.375 C-2.24114285 97.71108711 -8.68533264 97.4267291 -16.1875 94.375 C-16.1875 95.365 -16.1875 96.355 -16.1875 97.375 C-17.1775 97.375 -18.1675 97.375 -19.1875 97.375 C-19.47625 97.9525 -19.765 98.53 -20.0625 99.125 C-21.10416667 101.20833333 -22.14583333 103.29166667 -23.1875 105.375 C-18.8975 107.025 -14.6075 108.675 -10.1875 110.375 C-10.05357143 119.48214286 -10.05357143 119.48214286 -11.1875 123.375 C-21.84757878 124.44100788 -30.21687409 119.39105062 -38.37890625 112.875 C-38.97574219 112.38 -39.57257812 111.885 -40.1875 111.375 C-40.81527344 110.88 -41.44304688 110.385 -42.08984375 109.875 C-45.90543593 106.77735223 -48.80738041 103.75442005 -51.1875 99.375 C-51.1875 98.055 -51.1875 96.735 -51.1875 95.375 C-48.75635925 93.31287169 -45.95977758 91.93440614 -43.1875 90.375 C-43.47189941 89.78001709 -43.75629883 89.18503418 -44.04931641 88.57202148 C-46.96306915 82.00235778 -47.76414006 76.57917876 -47.5625 69.4375 C-47.54743408 68.47328125 -47.53236816 67.5090625 -47.5168457 66.515625 C-47.09593991 48.54887371 -47.09593991 48.54887371 -42.1875 41.375 C-40.1875 40.375 -40.1875 40.375 -38.1875 40.375 C-37.1975 41.035 -36.2075 41.695 -35.1875 42.375 C-32.59632687 42.37343776 -32.59632687 42.37343776 -30.1875 41.375 C-29.48812468 40.05852881 -28.82020867 38.72477849 -28.1875 37.375 C-26.85504015 37.03819197 -25.52151526 36.70559366 -24.1875 36.375 C-21.78652326 35.08632276 -21.78652326 35.08632276 -19.4375 33.5 C-18.63828125 32.98695313 -17.8390625 32.47390625 -17.015625 31.9453125 C-16.41234375 31.42710937 -15.8090625 30.90890625 -15.1875 30.375 C-15.1875 29.385 -15.1875 28.395 -15.1875 27.375 C-14.5275 27.375 -13.8675 27.375 -13.1875 27.375 C-13.10628076 25.77167209 -13.04820866 24.16715974 -13 22.5625 C-12.96519531 21.66917969 -12.93039063 20.77585937 -12.89453125 19.85546875 C-13.24436551 16.89353869 -13.98943504 16.27632619 -16.1875 14.375 C-17.93178992 10.24378703 -18.40016983 6.84106653 -18.1875 2.375 C-12.09058668 0.24915854 -6.42907214 -0.00837051 0 0 Z " fill="#FAFDFC" transform="translate(97.1875,101.625)"/>
<path d="M0 0 C8 0 8 0 10.09375 1.96875 C10.5578125 2.8040625 11.021875 3.639375 11.5 4.5 C11.9846875 5.3353125 12.469375 6.170625 12.96875 7.03125 C13.47921875 8.00578125 13.47921875 8.00578125 14 9 C17.24512351 6.21846556 17.86692388 4.26615224 20 0 C37.49 0 54.98 0 73 0 C73.495 1.485 73.495 1.485 74 3 C74.928125 2.505 75.85625 2.01 76.8125 1.5 C81.75804843 -0.61090482 86.71242766 -0.61926523 92 0 C95.6875 1.5 95.6875 1.5 98 3 C98.33 2.01 98.66 1.02 99 0 C101.97 0 104.94 0 108 0 C108 2.64 108 5.28 108 8 C109.65 8 111.3 8 113 8 C113 5.36 113 2.72 113 0 C114.64574566 -0.02688151 116.29161413 -0.04634123 117.9375 -0.0625 C118.85402344 -0.07410156 119.77054687 -0.08570313 120.71484375 -0.09765625 C123 0 123 0 124 1 C124.08737645 2.85369611 124.10698153 4.71067541 124.09765625 6.56640625 C124.09282227 8.2534668 124.09282227 8.2534668 124.08789062 9.97460938 C124.07532227 11.75061523 124.07532227 11.75061523 124.0625 13.5625 C124.05798828 14.75037109 124.05347656 15.93824219 124.04882812 17.16210938 C124.03699675 20.10812226 124.02051287 23.05403681 124 26 C123.34 26 122.68 26 122 26 C122.05220703 27.15628906 122.05220703 27.15628906 122.10546875 28.3359375 C122.13253906 29.33882812 122.15960938 30.34171875 122.1875 31.375 C122.23970703 32.87160156 122.23970703 32.87160156 122.29296875 34.3984375 C122.19628906 35.25695312 122.09960938 36.11546875 122 37 C118.91111478 39.05925681 118.29064073 39.2390374 114.8125 39.125 C113.554375 39.08375 112.29625 39.0425 111 39 C111 39.66 111 40.32 111 41 C109.02 41.99 109.02 41.99 107 43 C107 42.34 107 41.68 107 41 C105.57107422 40.90912109 105.57107422 40.90912109 104.11328125 40.81640625 C102.85902344 40.73261719 101.60476562 40.64882812 100.3125 40.5625 C99.07113281 40.48128906 97.82976562 40.40007812 96.55078125 40.31640625 C93.61819663 40.05508683 90.86558383 39.65201621 88 39 C87.505 34.545 87.505 34.545 87 30 C86.34 32.97 85.68 35.94 85 39 C83.37509046 39.02698189 81.75005367 39.04638757 80.125 39.0625 C79.22007812 39.07410156 78.31515625 39.08570313 77.3828125 39.09765625 C75 39 75 39 73 38 C72.375 34.9375 72.375 34.9375 72 32 C71.01 34.31 70.02 36.62 69 39 C61.25 39.125 61.25 39.125 59 38 C59 34.37 59 30.74 59 27 C54.02093741 26.24572703 54.02093741 26.24572703 49 26 C49 28.64 49 31.28 49 34 C51.31 34.33 53.62 34.66 56 35 C56 36.32 56 37.64 56 39 C54.18757948 39.02687279 52.37504767 39.04633715 50.5625 39.0625 C49.55316406 39.07410156 48.54382813 39.08570313 47.50390625 39.09765625 C45 39 45 39 44 38 C43.92794489 36.31391034 43.91613932 34.62499341 43.9375 32.9375 C43.94652344 32.01839844 43.95554688 31.09929687 43.96484375 30.15234375 C43.97644531 29.44207031 43.98804688 28.73179687 44 28 C43.34 28 42.68 28 42 28 C42.061875 29.258125 42.12375 30.51625 42.1875 31.8125 C42.16521115 34.33113951 42.13502197 35.72995606 41 38 C37.63044301 39.68477849 34.7359887 39.29650704 31 39 C29 37 29 37 28.76953125 35.125 C28.78371094 34.42375 28.79789063 33.7225 28.8125 33 C28.81894531 32.29875 28.82539063 31.5975 28.83203125 30.875 C29 29 29 29 30 27 C33.0625 26.375 33.0625 26.375 36 26 C35.505 25.01 35.505 25.01 35 24 C34.9283265 21.44842345 34.90691558 18.92527029 34.9375 16.375 C34.94201172 15.66859375 34.94652344 14.9621875 34.95117188 14.234375 C34.96296125 12.48954725 34.98089676 10.744763 35 9 C33.35 9 31.7 9 30 9 C30 14.28 30 19.56 30 25 C26.7 25 23.4 25 20 25 C19.67 24.01 19.34 23.02 19 22 C18.67 22.33 18.34 22.66 18 23 C14.5 23.125 14.5 23.125 11 23 C10.67 22.67 10.34 22.34 10 22 C9.67 22.99 9.34 23.98 9 25 C6.03 25 3.06 25 0 25 C0 16.75 0 8.5 0 0 Z " fill="#E8F4FC" transform="translate(133,147)"/>
<path d="M0 0 C0.66 0 1.32 0 2 0 C2 1.98 2 3.96 2 6 C1.071875 5.95875 0.14375 5.9175 -0.8125 5.875 C-4.15809719 5.72863661 -4.15809719 5.72863661 -7 8 C-7.8237956 9.96128755 -7.8237956 9.96128755 -8 12 C-7.505 12.99 -7.505 12.99 -7 14 C-6.34 12.68 -5.68 11.36 -5 10 C-4.67 10 -4.34 10 -4 10 C-4 18.25 -4 26.5 -4 35 C-0.7 35 2.6 35 6 35 C6 32.69 6 30.38 6 28 C8.97 28 11.94 28 15 28 C13.125 34.875 13.125 34.875 12 36 C14.97 36.33 17.94 36.66 21 37 C22.07396066 41.29584263 22.07329796 44.60212211 22 49 C21.07316406 48.98839844 20.14632812 48.97679687 19.19140625 48.96484375 C17.39509766 48.95130859 17.39509766 48.95130859 15.5625 48.9375 C14.36753906 48.92589844 13.17257813 48.91429687 11.94140625 48.90234375 C9.11126659 48.66098208 9.11126659 48.66098208 8 50 C8.51175781 50.39832031 9.02351563 50.79664063 9.55078125 51.20703125 C11 53 11 53 10.85546875 55.26171875 C10.52482422 56.46248047 10.52482422 56.46248047 10.1875 57.6875 C9.97480469 58.49574219 9.76210937 59.30398437 9.54296875 60.13671875 C9.36378906 60.75160156 9.18460938 61.36648437 9 62 C0.94635715 62.33608711 -5.49783264 62.0517291 -13 59 C-13 59.99 -13 60.98 -13 62 C-13.99 62 -14.98 62 -16 62 C-16.28875 62.5775 -16.5775 63.155 -16.875 63.75 C-17.91666667 65.83333333 -18.95833333 67.91666667 -20 70 C-15.71 71.65 -11.42 73.3 -7 75 C-6.86607143 84.10714286 -6.86607143 84.10714286 -8 88 C-18.66007878 89.06600788 -27.02937409 84.01605062 -35.19140625 77.5 C-35.78824219 77.005 -36.38507812 76.51 -37 76 C-37.62777344 75.505 -38.25554688 75.01 -38.90234375 74.5 C-42.71793593 71.40235223 -45.61988041 68.37942005 -48 64 C-48 62.68 -48 61.36 -48 60 C-45.56885925 57.93787169 -42.77227758 56.55940614 -40 55 C-40.28439941 54.40501709 -40.56879883 53.81003418 -40.86181641 53.19702148 C-43.77556915 46.62735778 -44.57664006 41.20417876 -44.375 34.0625 C-44.35993408 33.09828125 -44.34486816 32.1340625 -44.3293457 31.140625 C-43.90843991 13.17387371 -43.90843991 13.17387371 -39 6 C-37 5 -37 5 -35 5 C-34.01 5.66 -33.02 6.32 -32 7 C-29.40882687 6.99843776 -29.40882687 6.99843776 -27 6 C-25.63979849 4.03241727 -25.63979849 4.03241727 -25 2 C-24.34 2.66 -23.68 3.32 -23 4 C-23.40992187 4.70382813 -23.81984375 5.40765625 -24.2421875 6.1328125 C-28.63186387 14.17705198 -30.22025784 20.91197064 -31 30 C-28.03 29.67 -25.06 29.34 -22 29 C-21.89042969 28.34773438 -21.78085938 27.69546875 -21.66796875 27.0234375 C-20.32489823 19.62017074 -18.36981128 13.51494132 -13 8 C-9.37570145 5.74765252 -6.31455758 4 -2 4 C-1.34 2.68 -0.68 1.36 0 0 Z " fill="#F6FAFA" transform="translate(94,137)"/>
<path d="M0 0 C8 0 8 0 10.09375 1.96875 C10.5578125 2.8040625 11.021875 3.639375 11.5 4.5 C11.9846875 5.3353125 12.469375 6.170625 12.96875 7.03125 C13.47921875 8.00578125 13.47921875 8.00578125 14 9 C17.24512351 6.21846556 17.86692388 4.26615224 20 0 C37.16 0 54.32 0 72 0 C72 2.64 72 5.28 72 8 C71.67 8.33 71.34 8.66 71 9 C70.92820036 10.51928038 70.91607993 12.04167482 70.9375 13.5625 C70.94652344 14.38878906 70.95554687 15.21507812 70.96484375 16.06640625 C70.97644531 16.70449219 70.98804688 17.34257812 71 18 C71.66 18 72.32 18 73 18 C73 20.31 73 22.62 73 25 C72.01604248 24.99214478 72.01604248 24.99214478 71.01220703 24.98413086 C68.04981437 24.96338728 65.08743697 24.95034824 62.125 24.9375 C61.09246094 24.92912109 60.05992187 24.92074219 58.99609375 24.91210938 C58.00996094 24.90888672 57.02382812 24.90566406 56.0078125 24.90234375 C55.09660645 24.89710693 54.18540039 24.89187012 53.24658203 24.88647461 C50.96312491 24.85114435 50.96312491 24.85114435 49 26 C49 28.64 49 31.28 49 34 C51.31 34.33 53.62 34.66 56 35 C56 36.32 56 37.64 56 39 C54.18757948 39.02687279 52.37504767 39.04633715 50.5625 39.0625 C49.55316406 39.07410156 48.54382813 39.08570313 47.50390625 39.09765625 C45 39 45 39 44 38 C43.92794489 36.31391034 43.91613932 34.62499341 43.9375 32.9375 C43.94652344 32.01839844 43.95554688 31.09929687 43.96484375 30.15234375 C43.97644531 29.44207031 43.98804688 28.73179687 44 28 C43.34 28 42.68 28 42 28 C42.061875 29.258125 42.12375 30.51625 42.1875 31.8125 C42.16521115 34.33113951 42.13502197 35.72995606 41 38 C37.63044301 39.68477849 34.7359887 39.29650704 31 39 C29 37 29 37 28.76953125 35.125 C28.78371094 34.42375 28.79789063 33.7225 28.8125 33 C28.81894531 32.29875 28.82539063 31.5975 28.83203125 30.875 C29 29 29 29 30 27 C33.0625 26.375 33.0625 26.375 36 26 C35.505 25.01 35.505 25.01 35 24 C34.9283265 21.44842345 34.90691558 18.92527029 34.9375 16.375 C34.94201172 15.66859375 34.94652344 14.9621875 34.95117188 14.234375 C34.96296125 12.48954725 34.98089676 10.744763 35 9 C33.35 9 31.7 9 30 9 C30 14.28 30 19.56 30 25 C26.7 25 23.4 25 20 25 C19.67 24.01 19.34 23.02 19 22 C18.67 22.33 18.34 22.66 18 23 C14.5 23.125 14.5 23.125 11 23 C10.67 22.67 10.34 22.34 10 22 C9.67 22.99 9.34 23.98 9 25 C6.03 25 3.06 25 0 25 C0 16.75 0 8.5 0 0 Z " fill="#28509C" transform="translate(133,147)"/>
<path d="M0 0 C13.53 0 27.06 0 41 0 C41 2.64 41 5.28 41 8 C40.67 8.33 40.34 8.66 40 9 C40 10.134375 40 11.26875 40 12.4375 C40 16 40 16 39 18 C39.99 18 40.98 18 42 18 C42 20.31 42 22.62 42 25 C34.74 25 27.48 25 20 25 C20 19.39 20 13.78 20 8 C16.7 8 13.4 8 10 8 C10 8.66 10 9.32 10 10 C12.97 10 15.94 10 19 10 C19 12.64 19 15.28 19 18 C16.03 18 13.06 18 10 18 C10 20.31 10 22.62 10 25 C6.7 25 3.4 25 0 25 C0 16.75 0 8.5 0 0 Z " fill="#244D9E" transform="translate(90,147)"/>
<path d="M0 0 C2.97 0 5.94 0 9 0 C7.125 6.875 7.125 6.875 6 8 C8.97 8.33 11.94 8.66 15 9 C16.07396066 13.29584263 16.07329796 16.60212211 16 21 C15.07316406 20.98839844 14.14632812 20.97679687 13.19140625 20.96484375 C11.39509766 20.95130859 11.39509766 20.95130859 9.5625 20.9375 C8.36753906 20.92589844 7.17257813 20.91429687 5.94140625 20.90234375 C3.11126659 20.66098208 3.11126659 20.66098208 2 22 C2.51175781 22.39832031 3.02351563 22.79664063 3.55078125 23.20703125 C5 25 5 25 4.85546875 27.26171875 C4.52482422 28.46248047 4.52482422 28.46248047 4.1875 29.6875 C3.97480469 30.49574219 3.76210937 31.30398437 3.54296875 32.13671875 C3.36378906 32.75160156 3.18460938 33.36648437 3 34 C-7.63199235 34.60850831 -16.79773109 33.84515527 -25.1875 26.75 C-26.115625 25.8425 -27.04375 24.935 -28 24 C-26.84023123 18.86084115 -26.84023123 18.86084115 -24 17 C-20.19307337 17.08652106 -17.57316523 18.14085566 -14.375 20.0625 C-11.07043086 22.33191168 -11.07043086 22.33191168 -7 22 C-7 19.03 -7 16.06 -7 13 C-8.32 13 -9.64 13 -11 13 C-11.33 10.36 -11.66 7.72 -12 5 C-11.34 4.67 -10.68 4.34 -10 4 C-10 4.99 -10 5.98 -10 7 C-6.7 7 -3.4 7 0 7 C0 4.69 0 2.38 0 0 Z " fill="#DEEEFC" transform="translate(100,165)"/>
<path d="M0 0 C0.763125 0.061875 1.52625 0.12375 2.3125 0.1875 C2.3125 0.8475 2.3125 1.5075 2.3125 2.1875 C2.93125 2.455625 3.55 2.72375 4.1875 3 C6.3125 4.1875 6.3125 4.1875 8.3125 7.1875 C8.00766643 10.7178981 6.36872927 12.53653174 4 15.0625 C-4.78914351 24.85611706 -7.66285598 35.36475456 -9.6875 48.1875 C-13.9775 48.1875 -18.2675 48.1875 -22.6875 48.1875 C-23.52548803 29.12327224 -16.55356099 15.48766041 -4.1484375 1.4453125 C-2.6875 0.1875 -2.6875 0.1875 0 0 Z " fill="#244F9F" transform="translate(57.6875,116.8125)"/>
<path d="M0 0 C3.40667322 0.44824648 5.07914607 1.05276405 8 3 C7.54177532 6.46941546 7.10868317 9.67395049 6 13 C5.26081429 24.92391372 4.98910717 36.25936552 13 45.9375 C14.73740683 47.80311242 16.48501836 49.41040015 18.4375 51.0625 C20 53 20 53 19.8125 56.125 C19 59 19 59 18 61 C15.125 60.75 15.125 60.75 12 60 C10.875 58.0625 10.875 58.0625 10 56 C9.39285156 55.71511719 8.78570312 55.43023437 8.16015625 55.13671875 C0.78850587 51.25760436 -2.68094438 40.94013433 -5.125 33.51953125 C-7.56563544 23.70251104 -6.43620549 12.65199675 -2.4375 3.375 C-1 1 -1 1 0 0 Z " fill="#264F9C" transform="translate(56,142)"/>
<path d="M0 0 C1.703125 1.33984375 1.703125 1.33984375 3.25 2.9375 C3.77078125 3.46214844 4.2915625 3.98679688 4.828125 4.52734375 C6 6 6 6 6 8 C6.8971875 8.433125 6.8971875 8.433125 7.8125 8.875 C10 10 10 10 13 12 C13 12.66 13 13.32 13 14 C14.05767578 14.18369141 14.05767578 14.18369141 15.13671875 14.37109375 C18.15503183 15.03405201 20.91889442 15.98175575 23.8125 17.0625 C24.78832031 17.42472656 25.76414063 17.78695312 26.76953125 18.16015625 C27.50558594 18.43730469 28.24164063 18.71445313 29 19 C29.0272415 20.41655793 29.04650467 21.83327045 29.0625 23.25 C29.07410156 24.03890625 29.08570313 24.8278125 29.09765625 25.640625 C29.00385306 27.90691002 28.63241063 29.8288895 28 32 C17.33992122 33.06600788 8.97062591 28.01605062 0.80859375 21.5 C0.21175781 21.005 -0.38507812 20.51 -1 20 C-1.62777344 19.505 -2.25554688 19.01 -2.90234375 18.5 C-6.71793593 15.40235223 -9.61988041 12.37942005 -12 8 C-12 6.68 -12 5.36 -12 4 C-10.390625 2.48046875 -10.390625 2.48046875 -8.25 1.1875 C-7.20585938 0.52814453 -7.20585938 0.52814453 -6.140625 -0.14453125 C-3.54068562 -1.18355812 -2.55735909 -1.08275284 0 0 Z " fill="#234F9E" transform="translate(58,193)"/>
<path d="M0 0 C3.3 0 6.6 0 10 0 C10 8.25 10 16.5 10 25 C6.7 25 3.4 25 0 25 C0 22.36 0 19.72 0 17 C-1.65 17 -3.3 17 -5 17 C-5 19.64 -5 22.28 -5 25 C-8.3 25 -11.6 25 -15 25 C-15.33 24.34 -15.66 23.68 -16 23 C-16.93972656 23.12568359 -16.93972656 23.12568359 -17.8984375 23.25390625 C-19.12433594 23.40666016 -19.12433594 23.40666016 -20.375 23.5625 C-21.18710938 23.66691406 -21.99921875 23.77132812 -22.8359375 23.87890625 C-25 24 -25 24 -27 23 C-27 21.68 -27 20.36 -27 19 C-26.360625 18.896875 -25.72125 18.79375 -25.0625 18.6875 C-24.0415625 18.3471875 -24.0415625 18.3471875 -23 18 C-22.67 17.01 -22.34 16.02 -22 15 C-18.22360282 15.51032394 -16.55277419 16.20766929 -14 19 C-14.01160156 18.18015625 -14.02320313 17.3603125 -14.03515625 16.515625 C-14.04869141 14.89914063 -14.04869141 14.89914063 -14.0625 13.25 C-14.07990234 11.64898437 -14.07990234 11.64898437 -14.09765625 10.015625 C-14.01373814 7.42423374 -13.94664247 5.40176719 -13 3 C-9.77208445 0.8480563 -8.71599191 0.79913557 -5 1 C-5 3.31 -5 5.62 -5 8 C-3.35 8 -1.7 8 0 8 C0 5.36 0 2.72 0 0 Z " fill="#234D9A" transform="translate(246,147)"/>
<path d="M0 0 C1.01779541 -0.00128906 2.03559082 -0.00257812 3.08422852 -0.00390625 C10.65695984 0.10255598 16.92004699 1.05476457 23.8125 4.375 C23.69791307 5.81336751 23.57040884 7.25070966 23.4375 8.6875 C23.36789063 9.48800781 23.29828125 10.28851563 23.2265625 11.11328125 C22.8125 13.375 22.8125 13.375 20.8125 16.375 C19.02005859 16.12943359 19.02005859 16.12943359 17.19140625 15.87890625 C10.71832193 15.15967466 4.25460675 15.26754525 -2.25 15.3125 C-3.49716797 15.31701172 -4.74433594 15.32152344 -6.02929688 15.32617188 C-9.08208221 15.33786837 -12.13476498 15.35425914 -15.1875 15.375 C-17.31199225 10.68550398 -18.5730608 7.64433092 -18.1875 2.375 C-12.09058668 0.24915854 -6.42907214 -0.00837051 0 0 Z " fill="#264F9D" transform="translate(97.1875,101.625)"/>
<path d="M0 0 C0.33 0 0.66 0 1 0 C1 7.59 1 15.18 1 23 C3.97 23 6.94 23 10 23 C10.33 21.68 10.66 20.36 11 19 C11.33 19.33 11.66 19.66 12 20 C14.32817964 20.36760731 16.6618385 20.70241581 19 21 C19.33 20.34 19.66 19.68 20 19 C20.495 20.98 20.495 20.98 21 23 C23.97 23 26.94 23 30 23 C29.01 23.495 29.01 23.495 28 24 C28 28.29 28 32.58 28 37 C23 36 23 36 20 34 C20 34.99 20 35.98 20 37 C18.68 37 17.36 37 16 37 C15.34 35.68 14.68 34.36 14 33 C13.67 33.99 13.34 34.98 13 36 C11.68 36 10.36 36 9 36 C9 34.68 9 33.36 9 32 C7.68 32 6.36 32 5 32 C5 33.65 5 35.3 5 37 C3.68 37 2.36 37 1 37 C0.93941406 36.36191406 0.87882812 35.72382813 0.81640625 35.06640625 C0.73261719 34.24011719 0.64882812 33.41382813 0.5625 32.5625 C0.48128906 31.73878906 0.40007812 30.91507813 0.31640625 30.06640625 C0.21069185 28.01337975 0.21069185 28.01337975 -1 27 C-1.33 27.66 -1.66 28.32 -2 29 C-4.64 29 -7.28 29 -10 29 C-10 29.99 -10 30.98 -10 32 C-9.05125 31.979375 -8.1025 31.95875 -7.125 31.9375 C-4 32 -4 32 -2 33 C-2 34.32 -2 35.64 -2 37 C-3.64574566 37.02688151 -5.29161413 37.04634123 -6.9375 37.0625 C-7.85402344 37.07410156 -8.77054688 37.08570313 -9.71484375 37.09765625 C-12 37 -12 37 -13 36 C-13.07226502 34.14712498 -13.0838122 32.29166122 -13.0625 30.4375 C-13.05347656 29.42558594 -13.04445313 28.41367188 -13.03515625 27.37109375 C-13.02355469 26.58863281 -13.01195313 25.80617187 -13 25 C-15.97 24.67 -18.94 24.34 -22 24 C-22 23.67 -22 23.34 -22 23 C-14.74 23 -7.48 23 0 23 C0 20.69 0 18.38 0 16 C-0.99 16 -1.98 16 -3 16 C-2.67 15.34 -2.34 14.68 -2 14 C-1.34 14.33 -0.68 14.66 0 15 C0 10.05 0 5.1 0 0 Z " fill="#E2F5FD" transform="translate(132,149)"/>
<path d="M0 0 C3.6875 1.5 3.6875 1.5 6 3 C6.33 2.01 6.66 1.02 7 0 C9.97 0 12.94 0 16 0 C15.34 0.99 14.68 1.98 14 3 C12.02 3 10.04 3 8 3 C7.67 8.28 7.34 13.56 7 19 C6.01 18.67 5.02 18.34 4 18 C3.67 17.34 3.34 16.68 3 16 C-0.87871033 15.54781326 -0.87871033 15.54781326 -2.625 17.5 C-3.07875 17.995 -3.5325 18.49 -4 19 C-4.66 19 -5.32 19 -6 19 C-6 20.32 -6 21.64 -6 23 C-2.7 23 0.6 23 4 23 C1.18826762 25.81173238 -1.41474293 26.20067013 -5.25 26.375 C-9.65984214 26.32464291 -12.24621322 25.2101606 -15.625 22.41796875 C-18.57240367 19.37845872 -18.92628494 16.6757214 -19.375 12.5625 C-18.85236193 7.59743832 -16.84803406 4.68803111 -13.1953125 1.3515625 C-9.15441631 -1.13624903 -4.58476875 -0.51603458 0 0 Z " fill="#244FAB" transform="translate(225,147)"/>
<path d="M0 0 C3.97764699 2.96435401 7.24325404 5.86488105 10 10 C9.8125 12.5625 9.8125 12.5625 9 15 C6 17 6 17 3.5390625 16.859375 C0.52060128 15.83774197 -0.57107653 14.65680019 -2.625 12.25 C-10.14231838 4.28964574 -19.69115887 2.00648349 -30.25 1.4375 C-30.99507813 1.39431641 -31.74015625 1.35113281 -32.5078125 1.30664062 C-34.338349 1.20103275 -36.16915176 1.10005799 -38 1 C-38 -1.97 -38 -4.94 -38 -8 C-24.20076214 -11.44980947 -11.87762644 -7.03194642 0 0 Z " fill="#284F9D" transform="translate(126,126)"/>
<path d="M0 0 C0.66 0.99 1.32 1.98 2 3 C3.32 2.67 4.64 2.34 6 2 C5.01 3.5159375 5.01 3.5159375 4 5.0625 C1.85085444 8.8560096 1.44063331 11.60497605 2 16 C3.24226851 19.39989276 4.34443645 21.42389869 7.0625 23.8125 C11.35210246 25.54659461 15.38814353 25.6925429 20 26 C20 30.29 20 34.58 20 39 C18.68 39 17.36 39 16 39 C15.505 34.545 15.505 34.545 15 30 C14.34 32.97 13.68 35.94 13 39 C11.37509046 39.02698189 9.75005367 39.04638757 8.125 39.0625 C7.22007812 39.07410156 6.31515625 39.08570313 5.3828125 39.09765625 C3 39 3 39 1 38 C0.375 34.9375 0.375 34.9375 0 32 C-0.99 34.31 -1.98 36.62 -3 39 C-10.75 39.125 -10.75 39.125 -13 38 C-13 34.37 -13 30.74 -13 27 C-15.31 26.67 -17.62 26.34 -20 26 C-20 25.67 -20 25.34 -20 25 C-13.07 25 -6.14 25 1 25 C1 22.69 1 20.38 1 18 C0.34 18 -0.32 18 -1 18 C-1 15.03 -1 12.06 -1 9 C-4.3 9 -7.6 9 -11 9 C-11 8.67 -11 8.34 -11 8 C-7.37 8 -3.74 8 0 8 C0 5.36 0 2.72 0 0 Z " fill="#CEE3F1" transform="translate(205,147)"/>
<path d="M0 0 C1.125 7.75 1.125 7.75 0 10 C-1.39215513 10.65868497 -2.81469254 11.25406084 -4.25 11.8125 C-11.16406366 14.8148034 -14.37185143 18.86442633 -17.22265625 25.7109375 C-18.27709666 28.81597309 -18.6608964 31.74460542 -19 35 C-20 36 -20 36 -22.06640625 36.09765625 C-22.89011719 36.08605469 -23.71382813 36.07445312 -24.5625 36.0625 C-25.38878906 36.05347656 -26.21507813 36.04445312 -27.06640625 36.03515625 C-27.70449219 36.02355469 -28.34257813 36.01195312 -29 36 C-29.78883451 25.89853589 -27.33372996 16.82332873 -20.91015625 8.85546875 C-15.49111569 3.59157455 -7.82429909 -2.51495328 0 0 Z " fill="#305295" transform="translate(92,131)"/>
<path d="M0 0 C13.53 0 27.06 0 41 0 C40.67 1.98 40.34 3.96 40 6 C37.36 6.33 34.72 6.66 32 7 C32 7.66 32 8.32 32 9 C33.98 8.67 35.96 8.34 38 8 C38.44501681 9.57560007 38.85507231 11.16110489 39.25 12.75 C39.59804687 14.07257813 39.59804687 14.07257813 39.953125 15.421875 C40 18 40 18 38.46875 20.3125 C33.81626281 23.49268112 28.4484197 22.21793679 23 22 C22.67 17.05 22.34 12.1 22 7 C19.03 6.67 16.06 6.34 13 6 C13.33 6.99 13.66 7.98 14 9 C13.67 9.66 13.34 10.32 13 11 C12.34 11 11.68 11 11 11 C11.33 13.97 11.66 16.94 12 20 C11.01 19.67 10.02 19.34 9 19 C8.6309795 6.33029613 8.6309795 6.33029613 11 1 C7.37 1 3.74 1 0 1 C0 0.67 0 0.34 0 0 Z " fill="#214DA0" transform="translate(163,149)"/>
<path d="M0 0 C1.98 0 3.96 0 6 0 C7 1 7 1 7.09765625 4.37890625 C7.09098369 5.77347077 7.07902532 7.16801743 7.0625 8.5625 C7.05798828 9.27341797 7.05347656 9.98433594 7.04882812 10.71679688 C7.03700864 12.47790013 7.01907263 14.23896036 7 16 C6.01 16.33 5.02 16.66 4 17 C4 19.64 4 22.28 4 25 C6.31 25.33 8.62 25.66 11 26 C11 27.32 11 28.64 11 30 C9.18757948 30.02687279 7.37504767 30.04633715 5.5625 30.0625 C4.55316406 30.07410156 3.54382813 30.08570313 2.50390625 30.09765625 C0 30 0 30 -1 29 C-1.07205511 27.31391034 -1.08386068 25.62499341 -1.0625 23.9375 C-1.05347656 23.01839844 -1.04445312 22.09929687 -1.03515625 21.15234375 C-1.02355469 20.44207031 -1.01195312 19.73179687 -1 19 C-1.66 19 -2.32 19 -3 19 C-2.938125 20.258125 -2.87625 21.51625 -2.8125 22.8125 C-2.83478885 25.33113951 -2.86497803 26.72995606 -4 29 C-7.36955699 30.68477849 -10.2640113 30.29650704 -14 30 C-16 28 -16 28 -16.23046875 26.125 C-16.21628906 25.42375 -16.20210937 24.7225 -16.1875 24 C-16.18105469 23.29875 -16.17460937 22.5975 -16.16796875 21.875 C-16 20 -16 20 -15 18 C-11.9375 17.375 -11.9375 17.375 -9 17 C-9 16.67 -9 16.34 -9 16 C-6.03 16 -3.06 16 0 16 C0 10.72 0 5.44 0 0 Z " fill="#EBF7FC" transform="translate(178,156)"/>
<path d="M0 0 C3.25 0.9375 3.25 0.9375 6.3125 2.875 C11.39761571 6.03881633 17.4156968 6.27072249 23.25 6.9375 C24.4077506 10.41075181 24.31866652 13.29817448 24.25 16.9375 C13.61800765 17.54600831 4.45226891 16.78265527 -3.9375 9.6875 C-4.865625 8.78 -5.79375 7.8725 -6.75 6.9375 C-5.76248809 2.56164448 -4.98442002 -0.11328227 0 0 Z " fill="#2C519D" transform="translate(78.75,182.0625)"/>
<path d="M0 0 C13.53 0 27.06 0 41 0 C41 2.64 41 5.28 41 8 C38 4.25 38 4.25 38 2 C25.79 2 13.58 2 1 2 C1 8.6 1 15.2 1 22 C1.66 21.67 2.32 21.34 3 21 C3.46954261 17.95418731 3.46954261 17.95418731 3.625 14.4375 C3.69976562 13.23996094 3.77453125 12.04242188 3.8515625 10.80859375 C3.90054688 9.88175781 3.94953125 8.95492187 4 8 C4.33 8.66 4.66 9.32 5 10 C5.33 9.34 5.66 8.68 6 8 C7.32 8 8.64 8 10 8 C10 8.66 10 9.32 10 10 C12.97 10 15.94 10 19 10 C19 12.64 19 15.28 19 18 C16.03 18 13.06 18 10 18 C10 20.31 10 22.62 10 25 C6.7 25 3.4 25 0 25 C0 16.75 0 8.5 0 0 Z " fill="#2352A0" transform="translate(90,147)"/>
<path d="M0 0 C2.64 0 5.28 0 8 0 C8.28875 0.9075 8.5775 1.815 8.875 2.75 C9.87318295 5.86150021 9.87318295 5.86150021 11.0625 8.125 C12 10 12 10 12.5 12.1875 C12.665 12.785625 12.83 13.38375 13 14 C13.66 14.33 14.32 14.66 15 15 C15.95067299 18.28414305 16.10102197 19.69693408 15 23 C13.35 22.67 11.7 22.34 10 22 C9.67 22.99 9.34 23.98 9 25 C6.03 25 3.06 25 0 25 C0 16.75 0 8.5 0 0 Z " fill="#274FA0" transform="translate(133,147)"/>
<path d="M0 0 C2.64 0 5.28 0 8 0 C8 7.59 8 15.18 8 23 C5.03 23.33 2.06 23.66 -1 24 C-1 21.36 -1 18.72 -1 16 C-1.90492188 16.2165625 -1.90492188 16.2165625 -2.828125 16.4375 C-3.62734375 16.623125 -4.4265625 16.80875 -5.25 17 C-6.03890625 17.185625 -6.8278125 17.37125 -7.640625 17.5625 C-10 18 -10 18 -14 18 C-13.67 16.68 -13.34 15.36 -13 14 C-11.02 13.67 -9.04 13.34 -7 13 C-8.32 12.67 -9.64 12.34 -11 12 C-11 11.34 -11 10.68 -11 10 C-9.02 10 -7.04 10 -5 10 C-5 9.34 -5 8.68 -5 8 C-4.01 8 -3.02 8 -2 8 C-1.67 8.66 -1.34 9.32 -1 10 C0.04005702 6.61981469 0.08004482 3.5219721 0 0 Z " fill="#224D9A" transform="translate(247,148)"/>
<path d="M0 0 C0 0.66 0 1.32 0 2 C-0.99 2.66 -1.98 3.32 -3 4 C-2.67 4.66 -2.34 5.32 -2 6 C-4.31 7.32 -6.62 8.64 -9 10 C-9 10.66 -9 11.32 -9 12 C-9.9753197 13.02408568 -10.98198643 14.01834406 -12 15 C-15.9685916 19.21662857 -17.43194731 23.54745315 -19 29 C-20.65 29.33 -22.3 29.66 -24 30 C-22.46527032 25.27775484 -20.76054874 20.64144669 -19 16 C-17.68 16.33 -16.36 16.66 -15 17 C-15 16.34 -15 15.68 -15 15 C-15.66 15 -16.32 15 -17 15 C-18.45180723 7.74096386 -18.45180723 7.74096386 -16.4375 4.4375 C-14 3 -14 3 -10.75 3.25 C-9.38875 3.62125 -9.38875 3.62125 -8 4 C-7.67 3.01 -7.34 2.02 -7 1 C-4.52260646 0.09162237 -2.66420516 0 0 0 Z " fill="#2553A2" transform="translate(88,134)"/>
<path d="M0 0 C0.66 0.33 1.32 0.66 2 1 C3.53668865 1.22467831 5.07968054 1.40796805 6.625 1.5625 C7.44226563 1.64628906 8.25953125 1.73007813 9.1015625 1.81640625 C9.72804687 1.87699219 10.35453125 1.93757812 11 2 C10.01 2.495 10.01 2.495 9 3 C9 6.63 9 10.26 9 14 C11.64 14.33 14.28 14.66 17 15 C16.360625 15.28875 15.72125 15.5775 15.0625 15.875 C12.84793921 16.82823451 12.84793921 16.82823451 12 19 C11.236875 18.814375 10.47375 18.62875 9.6875 18.4375 C6.91032625 17.77180827 6.91032625 17.77180827 4 19 C3.67 18.01 3.34 17.02 3 16 C3.99 16 4.98 16 6 16 C6 14.35 6 12.7 6 11 C4.2984375 11.0309375 4.2984375 11.0309375 2.5625 11.0625 C-1 11 -1 11 -2 10 C-2.07179964 8.48071962 -2.08392007 6.95832518 -2.0625 5.4375 C-2.05347656 4.61121094 -2.04445312 3.78492188 -2.03515625 2.93359375 C-2.02355469 2.29550781 -2.01195312 1.65742188 -2 1 C-1.34 0.67 -0.68 0.34 0 0 Z " fill="#F0F8F9" transform="translate(183,171)"/>
<path d="M0 0 C0.93585938 -0.00128906 1.87171875 -0.00257812 2.8359375 -0.00390625 C3.80273438 -0.00003906 4.76953125 0.00382812 5.765625 0.0078125 C6.71695313 0.00394531 7.66828125 0.00007813 8.6484375 -0.00390625 C14.51049297 0.00412396 20.22067968 0.20609047 26.015625 1.1328125 C26.510625 2.1228125 26.510625 2.1228125 27.015625 3.1328125 C26.355625 3.1328125 25.695625 3.1328125 25.015625 3.1328125 C25.510625 4.6178125 25.510625 4.6178125 26.015625 6.1328125 C24.24450656 5.65470073 22.47374017 5.1752847 20.703125 4.6953125 C19.71699219 4.42847656 18.73085937 4.16164063 17.71484375 3.88671875 C15.80044974 3.35201825 13.90128885 2.76136712 12.015625 2.1328125 C9.27697213 2.06230136 6.56534912 2.03923485 3.828125 2.0703125 C2.70374023 2.07708008 2.70374023 2.07708008 1.55664062 2.08398438 C-0.29039883 2.09574896 -2.13739713 2.11368385 -3.984375 2.1328125 C-3.984375 5.1028125 -3.984375 8.0728125 -3.984375 11.1328125 C1.295625 11.1328125 6.575625 11.1328125 12.015625 11.1328125 C12.015625 11.4628125 12.015625 11.7928125 12.015625 12.1328125 C8.98828125 12.37695312 8.98828125 12.37695312 5.9609375 12.62109375 C3.62043284 13.00674286 3.62043284 13.00674286 2.015625 16.1328125 C2.015625 15.1428125 2.015625 14.1528125 2.015625 13.1328125 C-3.429375 14.6178125 -3.429375 14.6178125 -8.984375 16.1328125 C-9.314375 15.1428125 -9.644375 14.1528125 -9.984375 13.1328125 C-9.324375 13.1328125 -8.664375 13.1328125 -7.984375 13.1328125 C-7.93042022 11.50817408 -7.89160305 9.88302709 -7.859375 8.2578125 C-7.82457031 6.90042969 -7.82457031 6.90042969 -7.7890625 5.515625 C-7.74112664 2.94474256 -7.74112664 2.94474256 -9.984375 1.1328125 C-6.59886094 0.37216711 -3.467611 0.00466614 0 0 Z " fill="#E0EEF6" transform="translate(91.984375,115.8671875)"/>
<path d="M0 0 C13.53 0 27.06 0 41 0 C41 2.64 41 5.28 41 8 C38 4.25 38 4.25 38 2 C25.79 2 13.58 2 1 2 C1 8.6 1 15.2 1 22 C2.65 21.01 4.3 20.02 6 19 C6.33 19.99 6.66 20.98 7 22 C7.66 22.33 8.32 22.66 9 23 C9 23.66 9 24.32 9 25 C6.03 25 3.06 25 0 25 C0 16.75 0 8.5 0 0 Z " fill="#32508D" transform="translate(90,147)"/>
<path d="M0 0 C3.96 0 7.92 0 12 0 C12.29296875 7.6171875 12.29296875 7.6171875 12 10 C7.61501596 12.92332269 4.2225328 12.1356502 -1 12 C-0.67 8.04 -0.34 4.08 0 0 Z " fill="#5066A6" transform="translate(243,174)"/>
<path d="M0 0 C1.62418745 -0.08090971 3.24951745 -0.13914995 4.875 -0.1875 C5.77992188 -0.22230469 6.68484375 -0.25710937 7.6171875 -0.29296875 C8.79667969 -0.14794922 8.79667969 -0.14794922 10 0 C12.31282587 3.46923881 12.42478586 4.92205575 12 9 C11 10.875 11 10.875 9 12 C6.19826973 12.36095911 3.86224598 12.22716238 1 12 C-1 10 -1 10 -1.23046875 8.125 C-1.21628906 7.42375 -1.20210937 6.7225 -1.1875 6 C-1.18105469 5.29875 -1.17460937 4.5975 -1.16796875 3.875 C-1 2 -1 2 0 0 Z " fill="#3D5C98" transform="translate(163,174)"/>
<path d="M0 0 C0.66 0 1.32 0 2 0 C5.12623063 6.25246125 4.17807157 12.37334743 3 19 C2.96377667 20.66627298 2.95100158 22.33405374 3 24 C1.02 24 -0.96 24 -3 24 C-5.14039512 17.57881465 -4.12951322 8.82556126 -1.4375 2.625 C-0.7259375 1.325625 -0.7259375 1.325625 0 0 Z " fill="#1F4CA0" transform="translate(56,152)"/>
<path d="M0 0 C1.60875 0.020625 3.2175 0.04125 4.875 0.0625 C4.875 4.0225 4.875 7.9825 4.875 12.0625 C3.26625 12.10375 1.6575 12.145 0 12.1875 C-0.90492188 12.21070313 -1.80984375 12.23390625 -2.7421875 12.2578125 C-5.125 12.0625 -5.125 12.0625 -7.125 10.0625 C-7.3203125 7.8984375 -7.3203125 7.8984375 -7.25 5.4375 C-7.23195312 4.62023437 -7.21390625 3.80296875 -7.1953125 2.9609375 C-7.17210937 2.33445313 -7.14890625 1.70796875 -7.125 1.0625 C-4.60024538 -0.19987731 -2.81299534 -0.03606404 0 0 Z " fill="#274E94" transform="translate(235.125,173.9375)"/>
<path d="M0 0 C3.63 0 7.26 0 11 0 C12.07396066 4.29584263 12.07329796 7.60212211 12 12 C8.37 12 4.74 12 1 12 C-0.82089479 8.35821043 -0.05121113 3.99446852 0 0 Z " fill="#3862A1" transform="translate(104,174)"/>
<path d="M0 0 C2.57161458 0.03255208 5.14322917 0.06510417 7.71484375 0.09765625 C7.71484375 4.05765625 7.71484375 8.01765625 7.71484375 12.09765625 C0 12.1953125 0 12.1953125 -2.28515625 12.09765625 C-3.28515625 11.09765625 -3.28515625 11.09765625 -3.41796875 8.84765625 C-3.41539062 7.94015625 -3.4128125 7.03265625 -3.41015625 6.09765625 C-3.41273438 5.19015625 -3.4153125 4.28265625 -3.41796875 3.34765625 C-3.23731504 0.28716995 -3.06704111 0.13107013 0 0 Z " fill="#234BA7" transform="translate(210.28515625,173.90234375)"/>
<path d="M0 0 C3.63 0 7.26 0 11 0 C11.09765625 8.49609375 11.09765625 8.49609375 11 11 C9.10114904 12.89885096 6.42752097 12.12367506 3.91015625 12.1328125 C2 12 2 12 0 11 C0 7.37 0 3.74 0 0 Z " fill="#325196" transform="translate(192,174)"/>
<path d="M0 0 C1.65 0 3.3 0 5 0 C5.33 5.61 5.66 11.22 6 17 C7.32 17.33 8.64 17.66 10 18 C6.7 18 3.4 18 0 18 C-0.12375 19.629375 -0.2475 21.25875 -0.375 22.9375 C-0.5859375 25.71484375 -0.5859375 25.71484375 -1 28 C-1.66 28.33 -2.32 28.66 -3 29 C-3 25.04 -3 21.08 -3 17 C-2.34 16.67 -1.68 16.34 -1 16 C-0.68758545 13.28553021 -0.48663408 10.66090639 -0.375 7.9375 C-0.33632812 7.17888672 -0.29765625 6.42027344 -0.2578125 5.63867188 C-0.16326438 3.75952805 -0.08053244 1.87979664 0 0 Z " fill="#F0FAFE" transform="translate(163,156)"/>
<path d="M0 0 C3.96 1.32 7.92 2.64 12 4 C12.13392857 13.10714286 12.13392857 13.10714286 11 17 C2.59422965 17.84057704 -2.75957026 15.11638645 -10 11 C-10 10.34 -10 9.68 -10 9 C-8.35232753 9.28109113 -6.70686855 9.57518526 -5.0625 9.875 C-4.14597656 10.03742188 -3.22945313 10.19984375 -2.28515625 10.3671875 C-1.15400391 10.68042969 -1.15400391 10.68042969 0 11 C0.33 11.66 0.66 12.32 1 13 C2.88764903 13.68472665 2.88764903 13.68472665 5.0625 14.125 C6.16271484 14.37636719 6.16271484 14.37636719 7.28515625 14.6328125 C7.85105469 14.75398437 8.41695312 14.87515625 9 15 C9.33 12.69 9.66 10.38 10 8 C9.34 8 8.68 8 8 8 C8 7.34 8 6.68 8 6 C7.071875 6.20625 6.14375 6.4125 5.1875 6.625 C2 7 2 7 -1 5 C-0.34 4.67 0.32 4.34 1 4 C0.67 2.68 0.34 1.36 0 0 Z " fill="#2D529C" transform="translate(75,208)"/>
<path d="M0 0 C3.46941546 0.45822468 6.67395049 0.89131683 10 2 C9.88541307 3.43836751 9.75790884 4.87570966 9.625 6.3125 C9.55539063 7.11300781 9.48578125 7.91351563 9.4140625 8.73828125 C9 11 9 11 7 14 C5.20755859 13.75443359 5.20755859 13.75443359 3.37890625 13.50390625 C-3.09417807 12.78467466 -9.55789325 12.89254525 -16.0625 12.9375 C-17.30966797 12.94201172 -18.55683594 12.94652344 -19.84179688 12.95117188 C-22.89458221 12.96286837 -25.94726498 12.97925914 -29 13 C-28.67 12.34 -28.34 11.68 -28 11 C-23.90659073 10.8571448 -19.81316608 10.71473966 -15.71972656 10.57275391 C-14.3268186 10.52437552 -12.93391492 10.47587355 -11.54101562 10.42724609 C-9.54037587 10.3574232 -7.53971941 10.28807969 -5.5390625 10.21875 C-3.73236084 10.1559082 -3.73236084 10.1559082 -1.88916016 10.09179688 C-0.25997501 10.04003301 1.36999272 10 3 10 C3 9.01 3 8.02 3 7 C3.99 7 4.98 7 6 7 C5.88693303 5.04105639 5.88693303 5.04105639 5 3 C2.50965614 1.70339566 2.50965614 1.70339566 0 1 C0 0.67 0 0.34 0 0 Z " fill="#36569C" transform="translate(111,104)"/>
<path d="M0 0 C0.66 0 1.32 0 2 0 C2 3.96 2 7.92 2 12 C-3 11 -3 11 -5 10 C-5 10.99 -5 11.98 -5 13 C-6.32 13 -7.64 13 -9 13 C-9 9.04 -9 5.08 -9 1 C-4 2 -4 2 -1 4 C-0.67 2.68 -0.34 1.36 0 0 Z " fill="#36569C" transform="translate(157,173)"/>
<path d="M0 0 C0.98484375 0.02707031 1.9696875 0.05414063 2.984375 0.08203125 C3.73203125 0.11683594 4.4796875 0.15164062 5.25 0.1875 C5.25 0.5175 5.25 0.8475 5.25 1.1875 C1.95 1.1875 -1.35 1.1875 -4.75 1.1875 C-4.75 2.1775 -4.75 3.1675 -4.75 4.1875 C-5.74 4.1875 -6.73 4.1875 -7.75 4.1875 C-7.87375 4.703125 -7.9975 5.21875 -8.125 5.75 C-8.93641628 8.91452351 -9.8445913 12.04874985 -10.75 15.1875 C-9.76 15.5175 -8.77 15.8475 -7.75 16.1875 C-8.74 16.5175 -9.73 16.8475 -10.75 17.1875 C-10.75 17.8475 -10.75 18.5075 -10.75 19.1875 C-8.11 19.5175 -5.47 19.8475 -2.75 20.1875 C-2.42 19.5275 -2.09 18.8675 -1.75 18.1875 C-1.75 20.1675 -1.75 22.1475 -1.75 24.1875 C-4.4375 24.5 -4.4375 24.5 -7.75 24.1875 C-10.85164769 21.63725635 -12.47566416 20.01050753 -13.75 16.1875 C-14.28923825 10.47157456 -13.38434458 7.62947671 -9.75 3.1875 C-6.51296887 0.1705302 -4.37560405 -0.15627157 0 0 Z " fill="#3B5893" transform="translate(219.75,146.8125)"/>
<path d="M0 0 C2.70174318 1.5309878 3.00823325 3.12882794 3.875 6.0625 C4.24371088 7.72169896 4.58781674 9.3872643 4.875 11.0625 C3.225 11.3925 1.575 11.7225 -0.125 12.0625 C-0.455 13.0525 -0.785 14.0425 -1.125 15.0625 C-1.785 15.0625 -2.445 15.0625 -3.125 15.0625 C-3.455 13.4125 -3.785 11.7625 -4.125 10.0625 C-5.115 10.0625 -6.105 10.0625 -7.125 10.0625 C-7.455 8.7425 -7.785 7.4225 -8.125 6.0625 C-5.65 6.5575 -5.65 6.5575 -3.125 7.0625 C-3.125 6.4025 -3.125 5.7425 -3.125 5.0625 C-4.115 4.7325 -5.105 4.4025 -6.125 4.0625 C-2.74657221 0.08078154 -2.74657221 0.08078154 0 0 Z " fill="#2C519F" transform="translate(56.125,191.9375)"/>
<path d="M0 0 C0.66 0.66 1.32 1.32 2 2 C-1.43782031 1.86116581 -4.87516029 1.71272946 -8.3125 1.5625 C-9.28896484 1.52318359 -10.26542969 1.48386719 -11.27148438 1.44335938 C-12.20927734 1.40146484 -13.14707031 1.35957031 -14.11328125 1.31640625 C-14.97735596 1.27974854 -15.84143066 1.24309082 -16.73168945 1.20532227 C-19 1 -19 1 -22 0 C-21.34 1.98 -20.68 3.96 -20 6 C-21 7 -21 7 -23.5625 7.0625 C-24.366875 7.041875 -25.17125 7.02125 -26 7 C-26 4.03 -26 1.06 -26 -2 C-17.26153406 -4.18461649 -8.29595823 -3.60262728 0 0 Z " fill="#345598" transform="translate(114,120)"/>
<path d="M0 0 C0 3.96 0 7.92 0 12 C-0.99 11.01 -1.98 10.02 -3 9 C-5.49434617 8.89147547 -5.49434617 8.89147547 -8.125 9.375 C-9.74568789 9.61457995 -11.37047881 9.83062325 -13 10 C-14 9 -14 9 -14.0625 5.4375 C-14.041875 4.303125 -14.02125 3.16875 -14 2 C-8.49226442 0.87341772 -8.49226442 0.87341772 -5.8125 1.5625 C-5.214375 1.706875 -4.61625 1.85125 -4 2 C-1 0 -1 0 0 0 Z " fill="#EBF3FB" transform="translate(231,154)"/>
<path d="M0 0 C3.63 0 7.26 0 11 0 C11 1.32 11 2.64 11 4 C8.36 4 5.72 4 3 4 C3 4.99 3 5.98 3 7 C4.423125 6.9690625 4.423125 6.9690625 5.875 6.9375 C9 7 9 7 11 8 C11 9.32 11 10.64 11 12 C9.35425434 12.02688151 7.70838587 12.04634123 6.0625 12.0625 C5.14597656 12.07410156 4.22945313 12.08570313 3.28515625 12.09765625 C1 12 1 12 0 11 C-0.14310287 7.3308423 -0.04221662 3.67284559 0 0 Z " fill="#3B5195" transform="translate(119,174)"/>
<path d="M0 0 C1.32 0 2.64 0 4 0 C4 1.32 4 2.64 4 4 C5.32 4 6.64 4 8 4 C8 2.68 8 1.36 8 0 C9.32 0.33 10.64 0.66 12 1 C12 4.3 12 7.6 12 11 C10.68 11 9.36 11 8 11 C8 9.68 8 8.36 8 7 C6.68 7 5.36 7 4 7 C4 8.65 4 10.3 4 12 C2.68 12 1.36 12 0 12 C0 8.04 0 4.08 0 0 Z " fill="#334F8C" transform="translate(133,174)"/>
<path d="M0 0 C0.86149062 2.42089768 1.13536809 3.62096934 0.2578125 6.078125 C-0.11601563 6.79484375 -0.48984375 7.5115625 -0.875 8.25 C-4.7716133 16.52694411 -4.12322149 25.01852216 -4 34 C-4.66 34 -5.32 34 -6 34 C-6.33 31.69 -6.66 29.38 -7 27 C-9.97 27 -12.94 27 -16 27 C-16.33 27.66 -16.66 28.32 -17 29 C-19.0625 29.625 -19.0625 29.625 -21 30 C-23.17175481 26.74236778 -23.46043998 25.77560787 -23 22 C-21.5 19.6875 -21.5 19.6875 -20 18 C-20 20.64 -20 23.28 -20 26 C-15.71 26 -11.42 26 -7 26 C-6.90203125 25.03320312 -6.8040625 24.06640625 -6.703125 23.0703125 C-4.57941834 4.57941834 -4.57941834 4.57941834 0 0 Z " fill="#E4F3FC" transform="translate(55,139)"/>
<path d="M0 0 C1.99954746 -0.04254356 4.00041636 -0.04080783 6 0 C7 1 7 1 7.09765625 4.37890625 C7.09098369 5.77347077 7.07902532 7.16801743 7.0625 8.5625 C7.05798828 9.27341797 7.05347656 9.98433594 7.04882812 10.71679688 C7.03700864 12.47790013 7.01907263 14.23896036 7 16 C9.10494301 15.91291962 11.20902142 15.80474307 13.3125 15.6875 C14.48425781 15.62949219 15.65601563 15.57148438 16.86328125 15.51171875 C19.92814488 15.22061436 19.92814488 15.22061436 21.9375 13.78125 C23.43134322 11.27686578 23.09525303 9.66677124 22.6875 6.8125 C22.56761719 5.91144531 22.44773438 5.01039063 22.32421875 4.08203125 C22.21722656 3.39496094 22.11023438 2.70789063 22 2 C20.02 2.33 18.04 2.66 16 3 C16 2.34 16 1.68 16 1 C18.97 1 21.94 1 25 1 C25 3.97 25 6.94 25 10 C25.66 10 26.32 10 27 10 C27 12.31 27 14.62 27 17 C20.07 17 13.14 17 6 17 C5.67 12.05 5.34 7.1 5 2 C3.35 1.67 1.7 1.34 0 1 C0 0.67 0 0.34 0 0 Z " fill="#38559A" transform="translate(179,155)"/>
<path d="M0 0 C0.495 1.485 0.495 1.485 1 3 C3.31 3.33 5.62 3.66 8 4 C8 4.33 8 4.66 8 5 C5.69 5 3.38 5 1 5 C0.67 10.61 0.34 16.22 0 22 C-0.66 22 -1.32 22 -2 22 C-2 19.36 -2 16.72 -2 14 C-5.3 14 -8.6 14 -12 14 C-12 13.67 -12 13.34 -12 13 C-8.37 13 -4.74 13 -1 13 C-1 10.36 -1 7.72 -1 5 C-14.53 5 -28.06 5 -42 5 C-42 4.67 -42 4.34 -42 4 C-28.47 4 -14.94 4 -1 4 C-1.99 3.67 -2.98 3.34 -4 3 C-4 2.34 -4 1.68 -4 1 C-2.68 0.67 -1.36 0.34 0 0 Z " fill="#D7ECFD" transform="translate(132,142)"/>
<path d="M0 0 C3.3 0 6.6 0 10 0 C10 5.94 10 11.88 10 18 C16.27 18 22.54 18 29 18 C29 18.33 29 18.66 29 19 C25.7 19 22.4 19 19 19 C19 22.63 19 26.26 19 30 C18.67 30 18.34 30 18 30 C18 27.69 18 25.38 18 23 C17.01 23 16.02 23 15 23 C15 21.68 15 20.36 15 19 C11.7 19 8.4 19 5 19 C5.66 18.01 6.32 17.02 7 16 C7.44941255 13.61700383 7.81606943 11.21774516 8.125 8.8125 C8.29257813 7.54019531 8.46015625 6.26789063 8.6328125 4.95703125 C8.75398438 3.98121094 8.87515625 3.00539062 9 2 C6.03 2 3.06 2 0 2 C0 1.34 0 0.68 0 0 Z " fill="#E2FBFE" transform="translate(100,155)"/>
<path d="M0 0 C4.29 0.33 8.58 0.66 13 1 C14.1577506 4.47325181 14.06866652 7.36067448 14 11 C11.91695462 11.05418326 9.83350232 11.09287551 7.75 11.125 C6.00976562 11.15980469 6.00976562 11.15980469 4.234375 11.1953125 C1 11 1 11 -3 9 C0.3 8.34 3.6 7.68 7 7 C7.33 5.68 7.66 4.36 8 3 C7.01 3.33 6.02 3.66 5 4 C2.3125 3.0625 2.3125 3.0625 0 2 C0 1.34 0 0.68 0 0 Z " fill="#35579C" transform="translate(89,188)"/>
<path d="M0 0 C1 1 1 1 1.09765625 4.59765625 C1.0909822 6.08596867 1.07902183 7.57426432 1.0625 9.0625 C1.05798828 9.82111328 1.05347656 10.57972656 1.04882812 11.36132812 C1.0370068 13.24091871 1.01907078 15.12046899 1 17 C0.67 17 0.34 17 0 17 C0 12.05 0 7.1 0 2 C-1.65 2 -3.3 2 -5 2 C-5 7.28 -5 12.56 -5 18 C-8.3 18 -11.6 18 -15 18 C-15 17.34 -15 16.68 -15 16 C-14.05125 16.020625 -13.1025 16.04125 -12.125 16.0625 C-9.09333717 16.22551826 -9.09333717 16.22551826 -7 15 C-6.53348793 12.87423218 -6.53348793 12.87423218 -6.375 10.4375 C-6.30023438 9.61121094 -6.22546875 8.78492188 -6.1484375 7.93359375 C-6.09945312 7.29550781 -6.05046875 6.65742188 -6 6 C-7.65 6 -9.3 6 -11 6 C-11 4.68 -11 3.36 -11 2 C-6.83994248 -0.77337168 -4.76110215 -1.25292162 0 0 Z " fill="#46649F" transform="translate(168,154)"/>
<path d="M0 0 C0.99 0.33 1.98 0.66 3 1 C2.52466509 3.47174152 1.84736765 5.27751337 0.625 7.5 C-2.62030637 14.48989064 -4.68110624 21.36686895 -3 29 C0.3 28.67 3.6 28.34 7 28 C7 28.66 7 29.32 7 30 C2.71 30 -1.58 30 -6 30 C-6.47841837 19.11598206 -5.17443652 9.71954968 0 0 Z " fill="#355792" transform="translate(41,135)"/>
<path d="M0 0 C0.33 2.64 0.66 5.28 1 8 C-5.4 9.23076923 -5.4 9.23076923 -8.4375 8.0625 C-8.953125 7.711875 -9.46875 7.36125 -10 7 C-8.02 6.34 -6.04 5.68 -4 5 C-4 4.34 -4 3.68 -4 3 C-6.31 3.33 -8.62 3.66 -11 4 C-11.33 5.32 -11.66 6.64 -12 8 C-13.32 7.01 -14.64 6.02 -16 5 C-14.75443908 4.18071114 -13.50333365 3.36984814 -12.25 2.5625 C-11.20585938 1.88380859 -11.20585938 1.88380859 -10.140625 1.19140625 C-6.46711294 -0.85315794 -4.01143991 -1.2893914 0 0 Z " fill="#26509F" transform="translate(92,131)"/>
<path d="M0 0 C5.75 1.875 5.75 1.875 8 3 C10.00800456 2.71887936 12.01014051 2.38932033 14 2 C13.01 2.66 12.02 3.32 11 4 C10.690625 4.680625 10.38125 5.36125 10.0625 6.0625 C9 8 9 8 7.3125 8.75 C4.19853938 9.08664439 1.12892809 9.06017169 -2 9 C-2 8.01 -2 7.02 -2 6 C-3.32 5.34 -4.64 4.68 -6 4 C-4.02 3.67 -2.04 3.34 0 3 C0 2.01 0 1.02 0 0 Z " fill="#234EA7" transform="translate(87,188)"/>
<path d="M0 0 C0.99 0.33 1.98 0.66 3 1 C2.67 6.28 2.34 11.56 2 17 C-0.97 17 -3.94 17 -7 17 C-7 11.72 -7 6.44 -7 1 C-6.67 1 -6.34 1 -6 1 C-6 5.29 -6 9.58 -6 14 C-4.35 14 -2.7 14 -1 14 C-1.33 11.03 -1.66 8.06 -2 5 C-1.34 5 -0.68 5 0 5 C0 3.35 0 1.7 0 0 Z " fill="#284E98" transform="translate(176,155)"/>
<path d="M0 0 C1.32 0 2.64 0 4 0 C4.33 2.31 4.66 4.62 5 7 C7.31 7.33 9.62 7.66 12 8 C12 9.32 12 10.64 12 12 C10.18757948 12.02687279 8.37504767 12.04633715 6.5625 12.0625 C5.55316406 12.07410156 4.54382813 12.08570313 3.50390625 12.09765625 C1 12 1 12 0 11 C-0.07226502 9.14712498 -0.0838122 7.29166122 -0.0625 5.4375 C-0.05347656 4.42558594 -0.04445312 3.41367188 -0.03515625 2.37109375 C-0.02355469 1.58863281 -0.01195312 0.80617187 0 0 Z " fill="#506899" transform="translate(177,174)"/>
<path d="M0 0 C2.21652218 2.21652218 2.67494633 3.63479958 3.6875 6.5625 C6.85064516 14.69966153 12.08959672 20.77506093 19 26 C18.34 26.66 17.68 27.32 17 28 C8.4375 19.4375 8.4375 19.4375 6.640625 17.61328125 C4.94408452 15.89362576 4.94408452 15.89362576 2.6875 14.125 C0.10202606 10.86921801 -0.61471291 7.10217429 -1 3 C-0.67 2.01 -0.34 1.02 0 0 Z " fill="#E2F1FA" transform="translate(51,176)"/>
<path d="M0 0 C0.66 0.33 1.32 0.66 2 1 C1.67 3.97 1.34 6.94 1 10 C3.64 9.34 6.28 8.68 9 8 C9 10.64 9 13.28 9 16 C6.03 16 3.06 16 0 16 C-1.30267176 10.49983036 -0.71033431 5.52967941 0 0 Z " fill="#2D4E90" transform="translate(232,156)"/>
<path d="M0 0 C0.99 0.495 0.99 0.495 2 1 C1.98839844 1.75925781 1.97679688 2.51851562 1.96484375 3.30078125 C1.95582031 4.29464844 1.94679688 5.28851563 1.9375 6.3125 C1.92589844 7.29863281 1.91429688 8.28476563 1.90234375 9.30078125 C1.87670138 12.09963849 1.87670138 12.09963849 3 15 C3.33 14.34 3.66 13.68 4 13 C10.93 13.495 10.93 13.495 18 14 C18 14.66 18 15.32 18 16 C18.66 16.33 19.32 16.66 20 17 C13.4 17 6.8 17 0 17 C0 11.39 0 5.78 0 0 Z " fill="#33539F" transform="translate(110,155)"/>
<path d="M0 0 C2.64 0 5.28 0 8 0 C8.33 0.66 8.66 1.32 9 2 C6.36 2.33 3.72 2.66 1 3 C1.66 3.66 2.32 4.32 3 5 C3.66 5 4.32 5 5 5 C6.39431504 7.78863007 6.25660094 9.92078868 6 13 C5.01 13.66 4.02 14.32 3 15 C2.67 15.66 2.34 16.32 2 17 C1.34 17 0.68 17 0 17 C0 11.39 0 5.78 0 0 Z " fill="#2A5098" transform="translate(133,147)"/>
<path d="M0 0 C2.0625 1.75 2.0625 1.75 4 4 C3.68068547 7.52697415 2.0540353 9.35137136 -0.3125 11.875 C-2.53141789 14.30265045 -4.51817535 16.64097381 -6.25 19.4375 C-8 22 -8 22 -11 23 C-10.86064364 17.42574546 -8.40077115 14.63862224 -4.88671875 10.63671875 C-2.8834812 8.89892054 -1.59102864 8.39465999 1 8 C0.67 5.36 0.34 2.72 0 0 Z " fill="#2D4F8E" transform="translate(62,120)"/>
<path d="M0 0 C1.06927734 0.23976563 1.06927734 0.23976563 2.16015625 0.484375 C2.74667969 0.73703125 3.33320312 0.9896875 3.9375 1.25 C4.2675 2.24 4.5975 3.23 4.9375 4.25 C4.14577393 4.24476318 3.35404785 4.23952637 2.53833008 4.23413086 C-1.05777184 4.21331063 -4.65386105 4.20032373 -8.25 4.1875 C-9.49587891 4.17912109 -10.74175781 4.17074219 -12.02539062 4.16210938 C-13.22744141 4.15888672 -14.42949219 4.15566406 -15.66796875 4.15234375 C-16.77293701 4.14710693 -17.87790527 4.14187012 -19.01635742 4.13647461 C-21.82049379 4.24098077 -24.33667329 4.60902041 -27.0625 5.25 C-26.7325 3.93 -26.4025 2.61 -26.0625 1.25 C-20.4375 0.125 -20.4375 0.125 -17.0625 1.25 C-15.20511676 1.18928316 -13.34941887 1.05723302 -11.5 0.875 C-10.52933594 0.78476563 -9.55867188 0.69453125 -8.55859375 0.6015625 C-1.58742944 -0.38029163 -1.58742944 -0.38029163 0 0 Z " fill="#EAF8FB" transform="translate(108.0625,98.75)"/>
<path d="M0 0 C1.93681161 -0.08107583 3.8745934 -0.13922475 5.8125 -0.1875 C6.89144531 -0.22230469 7.97039062 -0.25710937 9.08203125 -0.29296875 C12 0 12 0 13.88671875 1.51171875 C14.25410156 2.00285156 14.62148437 2.49398437 15 3 C14.01 3.495 14.01 3.495 13 4 C12.67 4.99 12.34 5.98 12 7 C9.03 6.67 6.06 6.34 3 6 C3 5.01 3 4.02 3 3 C2.01 3 1.02 3 0 3 C0 2.01 0 1.02 0 0 Z " fill="#234D9B" transform="translate(215,148)"/>
<path d="M0 0 C3.96 0 7.92 0 12 0 C12 1.32 12 2.64 12 4 C10.35 4 8.7 4 7 4 C7 6.64 7 9.28 7 12 C6.01 12 5.02 12 4 12 C4 9.36 4 6.72 4 4 C2.68 4 1.36 4 0 4 C0 2.68 0 1.36 0 0 Z " fill="#385394" transform="translate(89,174)"/>
<path d="M0 0 C1.32 0 2.64 0 4 0 C4 0.66 4 1.32 4 2 C6.97 2 9.94 2 13 2 C13 4.64 13 7.28 13 10 C10.36 10 7.72 10 5 10 C5.33 8.35 5.66 6.7 6 5 C5.01 4.67 4.02 4.34 3 4 C3 3.01 3 2.02 3 1 C2.01 0.67 1.02 0.34 0 0 Z " fill="#3A5D9C" transform="translate(96,155)"/>
<path d="M0 0 C0.67095703 0.58007812 0.67095703 0.58007812 1.35546875 1.171875 C4.8521026 4.18390075 8.37407463 7.14321031 12 10 C11.67 10.99 11.34 11.98 11 13 C10.01 13 9.02 13 8 13 C7.34 14.32 6.68 15.64 6 17 C5.34 17 4.68 17 4 17 C4.29296875 15.01432292 4.5859375 13.02864583 4.87890625 11.04296875 C5.13904799 8.7974658 5.13904799 8.7974658 4 6 C2.68352881 5.30062468 1.34977849 4.63270867 0 4 C-0.33 3.34 -0.66 2.68 -1 2 C-0.67 1.34 -0.34 0.68 0 0 Z M-1 17 C0.65 17 2.3 17 4 17 C3.67 18.32 3.34 19.64 3 21 C2.34 21 1.68 21 1 21 C0.34 19.68 -0.32 18.36 -1 17 Z " fill="#E7F3FB" transform="translate(70,186)"/>
<path d="M0 0 C2 2 2 2 2.3125 4.9375 C2 8 2 8 1 9.875 C-2.25313684 11.70488947 -5.31390109 11.18128355 -9 11 C-8.34 10.67 -7.68 10.34 -7 10 C-7 9.01 -7 8.02 -7 7 C-7.66 6.67 -8.32 6.34 -9 6 C-8.34 6 -7.68 6 -7 6 C-7 5.01 -7 4.02 -7 3 C-5.35 3 -3.7 3 -2 3 C-2 3.66 -2 4.32 -2 5 C-1.34 5 -0.68 5 0 5 C0 3.35 0 1.7 0 0 Z " fill="#485EA5" transform="translate(173,175)"/>
<path d="M0 0 C0.33 0 0.66 0 1 0 C1 7.59 1 15.18 1 23 C3.64 23 6.28 23 9 23 C9 23.33 9 23.66 9 24 C5.04 24.495 5.04 24.495 1 25 C0.67 25.99 0.34 26.98 0 28 C-0.60485229 27.2733313 -0.60485229 27.2733313 -1.22192383 26.53198242 C-3.42847445 24.63082835 -4.57032554 24.5848884 -7.44921875 24.48828125 C-8.29677734 24.45283203 -9.14433594 24.41738281 -10.01757812 24.38085938 C-11.33918945 24.34702148 -11.33918945 24.34702148 -12.6875 24.3125 C-13.58017578 24.27833984 -14.47285156 24.24417969 -15.39257812 24.20898438 C-17.59492671 24.12654352 -19.79687938 24.05738449 -22 24 C-22 23.67 -22 23.34 -22 23 C-14.74 23 -7.48 23 0 23 C0 20.69 0 18.38 0 16 C-0.99 16 -1.98 16 -3 16 C-2.67 15.34 -2.34 14.68 -2 14 C-1.34 14.33 -0.68 14.66 0 15 C0 10.05 0 5.1 0 0 Z " fill="#97B7DF" transform="translate(132,149)"/>
<path d="M0 0 C5.37209302 -0.36627907 5.37209302 -0.36627907 8.25 1.3125 C10 3 10 3 12 6 C11.96856707 8.73990408 11.44521663 11.28417854 11 14 C10.67 14 10.34 14 10 14 C10 11.36 10 8.72 10 6 C9.09507812 6.2165625 9.09507812 6.2165625 8.171875 6.4375 C7.37265625 6.623125 6.5734375 6.80875 5.75 7 C4.96109375 7.185625 4.1721875 7.37125 3.359375 7.5625 C1 8 1 8 -3 8 C-2.67 6.68 -2.34 5.36 -2 4 C-0.02 3.67 1.96 3.34 4 3 C2.68 2.67 1.36 2.34 0 2 C0 1.34 0 0.68 0 0 Z " fill="#1D4EA7" transform="translate(236,158)"/>
<path d="M0 0 C0.99 0.66 1.98 1.32 3 2 C2.59007813 2.70382813 2.18015625 3.40765625 1.7578125 4.1328125 C-2.0785744 11.16312917 -3.83878557 17.18975869 -4.578125 25.1640625 C-5 28 -5 28 -7 30 C-7.65081724 13.27158659 -7.65081724 13.27158659 -4 6 C-3.01 5.34 -2.02 4.68 -1 4 C-0.27617533 1.94074861 -0.27617533 1.94074861 0 0 Z " fill="#D2E7F7" transform="translate(68,139)"/>
<path d="M0 0 C4.455 0.99 4.455 0.99 9 2 C9.33 1.34 9.66 0.68 10 0 C10.33 1.32 10.66 2.64 11 4 C13.97 4 16.94 4 20 4 C19.01 4.495 19.01 4.495 18 5 C18 9.29 18 13.58 18 18 C17.01 17.67 16.02 17.34 15 17 C15.66 17 16.32 17 17 17 C17 13.04 17 9.08 17 5 C16.01 5.495 16.01 5.495 15 6 C14.67 6.99 14.34 7.98 14 9 C12 8 10 7 8 6 C8 5.01 8 4.02 8 3 C5.36 3.33 2.72 3.66 0 4 C0 2.68 0 1.36 0 0 Z " fill="#BCD5ED" transform="translate(142,168)"/>
<path d="M0 0 C0.81210938 0.49113281 0.81210938 0.49113281 1.640625 0.9921875 C4.50719067 2.21664767 6.6452987 2.19892146 9.75 2.125 C10.73484375 2.10695312 11.7196875 2.08890625 12.734375 2.0703125 C13.48203125 2.04710937 14.2296875 2.02390625 15 2 C15 2.33 15 2.66 15 3 C11.7 3 8.4 3 5 3 C5 5.64 5 8.28 5 11 C3.35 11 1.7 11 0 11 C0 8.36 0 5.72 0 3 C-2.97 3 -5.94 3 -9 3 C-9 2.67 -9 2.34 -9 2 C-6.03 2 -3.06 2 0 2 C0 1.34 0 0.68 0 0 Z " fill="#ECF9FE" transform="translate(241,144)"/>
<path d="M0 0 C0.99 0 1.98 0 3 0 C3.02687279 1.81242052 3.04633715 3.62495233 3.0625 5.4375 C3.07410156 6.44683594 3.08570313 7.45617187 3.09765625 8.49609375 C3 11 3 11 2 12 C-0.67058851 12.14115161 -3.32432238 12.04247107 -6 12 C-4.68 11.67 -3.36 11.34 -2 11 C-2 10.01 -2 9.02 -2 8 C-2.66 8 -3.32 8 -4 8 C-4 6.68 -4 5.36 -4 4 C-2.68 4 -1.36 4 0 4 C0 2.68 0 1.36 0 0 Z " fill="#435895" transform="translate(200,174)"/>
<path d="M0 0 C2.57161458 0.03255208 5.14322917 0.06510417 7.71484375 0.09765625 C7.71484375 4.05765625 7.71484375 8.01765625 7.71484375 12.09765625 C0 12.1953125 0 12.1953125 -2.28515625 12.09765625 C-3.28515625 11.09765625 -3.28515625 11.09765625 -3.41796875 8.84765625 C-3.41539062 7.94015625 -3.4128125 7.03265625 -3.41015625 6.09765625 C-3.41273438 5.19015625 -3.4153125 4.28265625 -3.41796875 3.34765625 C-3.23731504 0.28716995 -3.06704111 0.13107013 0 0 Z M-0.28515625 2.09765625 C-2.43324796 5.31979382 -2.57901778 6.37541026 -2.28515625 10.09765625 C-1.10091299 11.51343102 -1.10091299 11.51343102 2.27734375 11.16015625 C3.97890625 11.12921875 3.97890625 11.12921875 5.71484375 11.09765625 C5.71484375 8.12765625 5.71484375 5.15765625 5.71484375 2.09765625 C2.79850246 1.84744055 2.79850246 1.84744055 -0.28515625 2.09765625 Z " fill="#3F5894" transform="translate(210.28515625,173.90234375)"/>
<path d="M0 0 C3.3 0 6.6 0 10 0 C10 8.25 10 16.5 10 25 C8.02 25 6.04 25 4 25 C4 24.67 4 24.34 4 24 C5.65 24 7.3 24 9 24 C9 16.41 9 8.82 9 1 C6.36 1 3.72 1 1 1 C1.20625 2.258125 1.4125 3.51625 1.625 4.8125 C2.21335669 8.4014758 2.16617415 8.75073878 0 12 C-0.66 11.67 -1.32 11.34 -2 11 C-1.67 10.34 -1.34 9.68 -1 9 C-1.99 9 -2.98 9 -4 9 C-4 9.66 -4 10.32 -4 11 C-4.66 10.67 -5.32 10.34 -6 10 C-5.67 9.34 -5.34 8.68 -5 8 C-3.35 8 -1.7 8 0 8 C0 5.36 0 2.72 0 0 Z " fill="#44609C" transform="translate(246,147)"/>
<path d="M0 0 C1.0625 1.6875 1.0625 1.6875 0.75 4.375 C0.523125 5.138125 0.29625 5.90125 0.0625 6.6875 C-1.2575 6.3575 -2.5775 6.0275 -3.9375 5.6875 C-3.9375 3.7075 -3.9375 1.7275 -3.9375 -0.3125 C-8.8875 -0.3125 -13.8375 -0.3125 -18.9375 -0.3125 C-18.6075 -0.9725 -18.2775 -1.6325 -17.9375 -2.3125 C-11.47241348 -3.82223772 -5.62827937 -3.81270538 0 0 Z " fill="#234AAC" transform="translate(119.9375,126.3125)"/>
<path d="M0 0 C6.27 0.33 12.54 0.66 19 1 C19.33 2.98 19.66 4.96 20 7 C19.01 6.67 18.02 6.34 17 6 C17 5.34 17 4.68 17 4 C15.06257659 3.97296619 13.12504521 3.95358875 11.1875 3.9375 C9.56908203 3.92009766 9.56908203 3.92009766 7.91796875 3.90234375 C4.93487831 3.86375234 4.93487831 3.86375234 2 5 C1.34 3.35 0.68 1.7 0 0 Z " fill="#224D93" transform="translate(111,165)"/>
<path d="M0 0 C1.64767247 0.28109113 3.29313145 0.57518526 4.9375 0.875 C5.85402344 1.03742188 6.77054687 1.19984375 7.71484375 1.3671875 C8.46894531 1.57601562 9.22304687 1.78484375 10 2 C10.33 2.66 10.66 3.32 11 4 C13.34907875 4.68931344 13.34907875 4.68931344 16.0625 5.125 C16.98160156 5.29257813 17.90070313 5.46015625 18.84765625 5.6328125 C19.91306641 5.81457031 19.91306641 5.81457031 21 6 C21 6.66 21 7.32 21 8 C12.59422965 8.84057704 7.24042974 6.11638645 0 2 C0 1.34 0 0.68 0 0 Z " fill="#3F5E96" transform="translate(65,217)"/>
<path d="M0 0 C0.33 0 0.66 0 1 0 C1 2.64 1 5.28 1 8 C1.33 7.34 1.66 6.68 2 6 C2.99 6 3.98 6 5 6 C5.66 5.34 6.32 4.68 7 4 C7.66 5.32 8.32 6.64 9 8 C8.01 8.33 7.02 8.66 6 9 C6.99 9.99 7.98 10.98 9 12 C8.34 13.32 7.68 14.64 7 16 C6.67 14.35 6.34 12.7 6 11 C3.03 11 0.06 11 -3 11 C-3 10.01 -3 9.02 -3 8 C-2.01 8 -1.02 8 0 8 C0 5.36 0 2.72 0 0 Z " fill="#DBE8F6" transform="translate(96,178)"/>
<path d="M0 0 C1.60875 0.020625 3.2175 0.04125 4.875 0.0625 C4.875 4.0225 4.875 7.9825 4.875 12.0625 C3.26625 12.10375 1.6575 12.145 0 12.1875 C-0.90492188 12.21070313 -1.80984375 12.23390625 -2.7421875 12.2578125 C-5.125 12.0625 -5.125 12.0625 -7.125 10.0625 C-7.3203125 7.8984375 -7.3203125 7.8984375 -7.25 5.4375 C-7.23195312 4.62023437 -7.21390625 3.80296875 -7.1953125 2.9609375 C-7.17210937 2.33445313 -7.14890625 1.70796875 -7.125 1.0625 C-4.60024538 -0.19987731 -2.81299534 -0.03606404 0 0 Z M-3.125 1.0625 C-3.125 1.7225 -3.125 2.3825 -3.125 3.0625 C-3.785 3.0625 -4.445 3.0625 -5.125 3.0625 C-5.33470559 7.20343698 -5.33470559 7.20343698 -4.125 11.0625 C-1.485 11.0625 1.155 11.0625 3.875 11.0625 C3.875 8.0925 3.875 5.1225 3.875 2.0625 C1.565 1.7325 -0.745 1.4025 -3.125 1.0625 Z " fill="#48679C" transform="translate(235.125,173.9375)"/>
<path d="M0 0 C2.97 0 5.94 0 9 0 C9.33 2.31 9.66 4.62 10 7 C6.37 6.67 2.74 6.34 -1 6 C-1 5.01 -1 4.02 -1 3 C-0.34 3 0.32 3 1 3 C0.67 2.01 0.34 1.02 0 0 Z " fill="#224E94" transform="translate(245,175)"/>
<path d="M0 0 C3.47914843 -0.0294191 6.95826417 -0.04693792 10.4375 -0.0625 C11.41138672 -0.07087891 12.38527344 -0.07925781 13.38867188 -0.08789062 C19.34008112 -0.107795 25.11710513 0.04844325 31 1 C31.33 1.66 31.66 2.32 32 3 C31.34 3 30.68 3 30 3 C30.33 3.99 30.66 4.98 31 6 C29.22888156 5.52188823 27.45811517 5.0424722 25.6875 4.5625 C24.70136719 4.29566406 23.71523437 4.02882813 22.69921875 3.75390625 C20.78482474 3.21920575 18.88566385 2.62855462 17 2 C13.41234439 1.9698154 9.836422 2.06675984 6.25 2.16015625 C3 2 3 2 0 0 Z " fill="#B9D6EF" transform="translate(87,116)"/>
<path d="M0 0 C0.66 0.99 1.32 1.98 2 3 C3.32 2.67 4.64 2.34 6 2 C5.34 2.969375 4.68 3.93875 4 4.9375 C1.48683524 9.25589579 1.6021488 13.12632275 2 18 C1.01 18 0.02 18 -1 18 C-1 15.03 -1 12.06 -1 9 C-4.3 9 -7.6 9 -11 9 C-11 8.67 -11 8.34 -11 8 C-7.37 8 -3.74 8 0 8 C0 5.36 0 2.72 0 0 Z " fill="#C3E2FB" transform="translate(205,147)"/>
<path d="M0 0 C2 2 2 2 2.1953125 3.9453125 C2.13020833 5.96354167 2.06510417 7.98177083 2 10 C1.01 10 0.02 10 -1 10 C-1 9.01 -1 8.02 -1 7 C-3.64 6.67 -6.28 6.34 -9 6 C-9 5.01 -9 4.02 -9 3 C-6.36 3 -3.72 3 -1 3 C-0.67 2.01 -0.34 1.02 0 0 Z " fill="#E9F9FE" transform="translate(131,175)"/>
<path d="M0 0 C0.33 0.99 0.66 1.98 1 3 C4.3 3 7.6 3 11 3 C10.67 3.66 10.34 4.32 10 5 C7.27734375 5.4140625 7.27734375 5.4140625 3.9375 5.625 C2.83277344 5.69976562 1.72804687 5.77453125 0.58984375 5.8515625 C-0.26480469 5.90054688 -1.11945313 5.94953125 -2 6 C-1.67 9.3 -1.34 12.6 -1 16 C-1.66 16 -2.32 16 -3 16 C-3 12.04 -3 8.08 -3 4 C-3.99 3.67 -4.98 3.34 -6 3 C-4.02 2.01 -2.04 1.02 0 0 Z " fill="#CBE3F5" transform="translate(230,169)"/>
<path d="M0 0 C0.33 0 0.66 0 1 0 C3.43499151 6.01586138 2.89103522 11.29760244 2.2890625 17.6953125 C2.04462289 20.48985185 1.94713514 23.19816222 2 26 C-0.78167231 23.21832769 -0.94463325 21.1399036 -1.1328125 17.265625 C-1.11765363 11.41429937 -0.89003265 5.78521221 0 0 Z " fill="#4A64A7" transform="translate(51,152)"/>
<path d="M0 0 C1.65 0 3.3 0 5 0 C5.309375 1.093125 5.61875 2.18625 5.9375 3.3125 C6.58337897 5.55407994 7.2623117 7.7869351 8 10 C5.36 9.67 2.72 9.34 0 9 C0 8.34 0 7.68 0 7 C0.66 6.67 1.32 6.34 2 6 C1.34 5.67 0.68 5.34 0 5 C0 3.35 0 1.7 0 0 Z " fill="#214DA8" transform="translate(209,157)"/>
<path d="M0 0 C1.32 0 2.64 0 4 0 C4 3.96 4 7.92 4 12 C2.68 12 1.36 12 0 12 C0 8.04 0 4.08 0 0 Z " fill="#3D558D" transform="translate(221,174)"/>
<path d="M0 0 C1.4540625 0.0309375 1.4540625 0.0309375 2.9375 0.0625 C2.9375 0.7225 2.9375 1.3825 2.9375 2.0625 C1.6175 2.3925 0.2975 2.7225 -1.0625 3.0625 C-1.0625 4.3825 -1.0625 5.7025 -1.0625 7.0625 C2.2375 7.0625 5.5375 7.0625 8.9375 7.0625 C5.98213456 10.01786544 3.38247807 10.21698947 -0.625 10.25 C-1.80255859 10.27126953 -1.80255859 10.27126953 -3.00390625 10.29296875 C-5.0625 10.0625 -5.0625 10.0625 -7.0625 8.0625 C-5.4125 8.0625 -3.7625 8.0625 -2.0625 8.0625 C-2.0625 6.0825 -2.0625 4.1025 -2.0625 2.0625 C-2.7225 1.7325 -3.3825 1.4025 -4.0625 1.0625 C-3.0625 0.0625 -3.0625 0.0625 0 0 Z " fill="#405FA0" transform="translate(220.0625,162.9375)"/>
<path d="M0 0 C0.7425 0.185625 1.485 0.37125 2.25 0.5625 C2.8275 0.706875 3.405 0.85125 4 1 C4 3.31 4 5.62 4 8 C3.34 7.34 2.68 6.68 2 6 C2 4.68 2 3.36 2 2 C-3.61 2 -9.22 2 -15 2 C-15 1.34 -15 0.68 -15 0 C-13.25093341 -0.19601608 -11.50068154 -0.38147403 -9.75 -0.5625 C-8.77546875 -0.66691406 -7.8009375 -0.77132812 -6.796875 -0.87890625 C-4.20928577 -0.99093874 -2.44291796 -0.77144778 0 0 Z " fill="#224CA8" transform="translate(128,164)"/>
<path d="M0 0 C0.33 0 0.66 0 1 0 C1.06058594 1.08539063 1.12117188 2.17078125 1.18359375 3.2890625 C1.26806064 4.73438486 1.35270551 6.17969682 1.4375 7.625 C1.47681641 8.33785156 1.51613281 9.05070313 1.55664062 9.78515625 C1.80309681 13.91803682 2.23470053 17.92269024 3 22 C2.01 22.33 1.02 22.66 0 23 C-1.86553091 14.77731378 -2.09545915 8.18840962 0 0 Z " fill="#4360A3" transform="translate(60,157)"/>
<path d="M0 0 C1.32 0 2.64 0 4 0 C4 3.96 4 7.92 4 12 C2.68 12 1.36 12 0 12 C0 8.04 0 4.08 0 0 Z " fill="#4E6099" transform="translate(133,174)"/>
<path d="M0 0 C0.99 1.32 1.98 2.64 3 4 C3.98165594 5.01801357 4.97591432 6.0246803 6 7 C7.32 4.69 8.64 2.38 10 0 C11.05609899 3.16829698 11.13055309 3.98519175 10 7 C8.5 8.625 8.5 8.625 7 10 C6.67 10.66 6.34 11.32 6 12 C5.34 12 4.68 12 4 12 C3.34 11.34 2.68 10.68 2 10 C1.67 10 1.34 10 1 10 C0.67 6.7 0.34 3.4 0 0 Z " fill="#3B5D9B" transform="translate(142,149)"/>
<path d="M0 0 C0 0.66 0 1.32 0 2 C-0.99 2.66 -1.98 3.32 -3 4 C-2.67 4.66 -2.34 5.32 -2 6 C-5.465 7.485 -5.465 7.485 -9 9 C-9.33 8.34 -9.66 7.68 -10 7 C-10.99 7.495 -10.99 7.495 -12 8 C-12 6.35 -12 4.7 -12 3 C-10.68 3.33 -9.36 3.66 -8 4 C-7.67 3.01 -7.34 2.02 -7 1 C-4.52260646 0.09162237 -2.66420516 0 0 0 Z " fill="#1F4896" transform="translate(88,134)"/>
<path d="M0 0 C0 3.63 0 7.26 0 11 C-2.64 10.67 -5.28 10.34 -8 10 C-8 9.34 -8 8.68 -8 8 C-6.35 7.67 -4.7 7.34 -3 7 C-3 5.02 -3 3.04 -3 1 C-1 0 -1 0 0 0 Z " fill="#274C9A" transform="translate(115,174)"/>
<path d="M0 0 C6.73608746 2.88689463 11.0764493 6.60504551 16 12 C15.34 12.66 14.68 13.32 14 14 C12.66079162 12.88200014 11.32877444 11.75538103 10 10.625 C9.2575 9.99851563 8.515 9.37203125 7.75 8.7265625 C7.1725 8.15679687 6.595 7.58703125 6 7 C6 6.34 6 5.68 6 5 C5.38125 4.9175 4.7625 4.835 4.125 4.75 C2 4 2 4 0.8671875 1.953125 C0.58101563 1.30859375 0.29484375 0.6640625 0 0 Z " fill="#E0F0FB" transform="translate(112,130)"/>
<path d="M0 0 C3.96 0 7.92 0 12 0 C12.33 1.32 12.66 2.64 13 4 C12.34 4.66 11.68 5.32 11 6 C7.37 4.68 3.74 3.36 0 2 C0 1.34 0 0.68 0 0 Z " fill="#37599A" transform="translate(104,126)"/>
<path d="M0 0 C0.66 0 1.32 0 2 0 C2 3.96 2 7.92 2 12 C5.96 12.33 9.92 12.66 14 13 C14 13.33 14 13.66 14 14 C11.85423363 14.02685938 9.70837355 14.04633088 7.5625 14.0625 C6.36753906 14.07410156 5.17257813 14.08570313 3.94140625 14.09765625 C1 14 1 14 0 13 C-0.07258946 10.81360547 -0.08373783 8.62499611 -0.0625 6.4375 C-0.05347656 5.23996094 -0.04445312 4.04242188 -0.03515625 2.80859375 C-0.02355469 1.88175781 -0.01195312 0.95492187 0 0 Z " fill="#E0F2FD" transform="translate(225,173)"/>
<path d="M0 0 C2.31 0 4.62 0 7 0 C7.25 2.3125 7.25 2.3125 7 5 C5 6.8125 5 6.8125 3 8 C2.34 7.67 1.68 7.34 1 7 C0.59270772 4.67843403 0.25561323 2.3431213 0 0 Z " fill="#FAFBF8" transform="translate(101,166)"/>
<path d="M0 0 C0.99 0.33 1.98 0.66 3 1 C3 1.66 3 2.32 3 3 C3.66 3 4.32 3 5 3 C5.33 4.65 5.66 6.3 6 8 C3.69 7.67 1.38 7.34 -1 7 C-2 4 -2 4 -1.0625 1.8125 C-0.5365625 0.9153125 -0.5365625 0.9153125 0 0 Z " fill="#224D9E" transform="translate(67,192)"/>
<path d="M0 0 C1.23556641 0.01740234 1.23556641 0.01740234 2.49609375 0.03515625 C3.32238281 0.04417969 4.14867187 0.05320313 5 0.0625 C5.63808594 0.07410156 6.27617187 0.08570313 6.93359375 0.09765625 C5.94359375 1.58265625 5.94359375 1.58265625 4.93359375 3.09765625 C2.95359375 3.09765625 0.97359375 3.09765625 -1.06640625 3.09765625 C-1.39640625 8.37765625 -1.72640625 13.65765625 -2.06640625 19.09765625 C-2.39640625 19.09765625 -2.72640625 19.09765625 -3.06640625 19.09765625 C-3.09324612 16.11843032 -3.11316662 13.1394433 -3.12890625 10.16015625 C-3.13728516 9.31001953 -3.14566406 8.45988281 -3.15429688 7.58398438 C-3.15751953 6.77509766 -3.16074219 5.96621094 -3.1640625 5.1328125 C-3.16929932 4.38394775 -3.17453613 3.63508301 -3.17993164 2.86352539 C-3.01250827 0.25928194 -2.59628016 0.12269755 0 0 Z " fill="#3F5C9A" transform="translate(234.06640625,146.90234375)"/>
<path d="M0 0 C0.66 0.33 1.32 0.66 2 1 C1.47599609 2.21236328 1.47599609 2.21236328 0.94140625 3.44921875 C0.48636719 4.51785156 0.03132813 5.58648437 -0.4375 6.6875 C-0.88996094 7.74324219 -1.34242187 8.79898438 -1.80859375 9.88671875 C-2.85447455 12.61972529 -3.53520748 15.12042337 -4 18 C-4.33 18 -4.66 18 -5 18 C-5.55607983 6.23994134 -5.55607983 6.23994134 -2 2 C-1.34 1.34 -0.68 0.68 0 0 Z " fill="#E8F6FD" transform="translate(40,134)"/>
<path d="M0 0 C0.33 0 0.66 0 1 0 C1 4.29 1 8.58 1 13 C3.31 13.33 5.62 13.66 8 14 C8.33 13.34 8.66 12.68 9 12 C9 13.32 9 14.64 9 16 C6.03 16 3.06 16 0 16 C0 10.72 0 5.44 0 0 Z " fill="#2C4E8A" transform="translate(169,156)"/>
<path d="M0 0 C5.75 4.625 5.75 4.625 8 8 C7.625 10.6875 7.625 10.6875 7 13 C6.01 13.33 5.02 13.66 4 14 C4.33 12.02 4.66 10.04 5 8 C4.34 8 3.68 8 3 8 C2.67 7.01 2.34 6.02 2 5 C1.34 4.67 0.68 4.34 0 4 C0 2.68 0 1.36 0 0 Z " fill="#465D8A" transform="translate(128,128)"/>
<path d="M0 0 C0.33 0.66 0.66 1.32 1 2 C0.01 3.485 0.01 3.485 -1 5 C-3.32817964 5.36760731 -5.6618385 5.70241581 -8 6 C-8.33 6.66 -8.66 7.32 -9 8 C-9.66 8 -10.32 8 -11 8 C-11.33 5.69 -11.66 3.38 -12 1 C-11.01 1.495 -11.01 1.495 -10 2 C-8.08596924 2.19668734 -8.08596924 2.19668734 -6 2.1875 C-5.29875 2.20167969 -4.5975 2.21585938 -3.875 2.23046875 C-1.75475062 2.16512323 -1.75475062 2.16512323 0 0 Z " fill="#EAF9F7" transform="translate(174,183)"/>
<path d="M0 0 C0.33 0 0.66 0 1 0 C1 5.94 1 11.88 1 18 C-0.32 18.33 -1.64 18.66 -3 19 C-3.33 19.66 -3.66 20.32 -4 21 C-4.33 19.68 -4.66 18.36 -5 17 C-6.32 16.67 -7.64 16.34 -9 16 C-6.03 16 -3.06 16 0 16 C0 10.72 0 5.44 0 0 Z " fill="#A9BDE1" transform="translate(178,156)"/>
<path d="M0 0 C0.99 0.33 1.98 0.66 3 1 C2.34 3.31 1.68 5.62 1 8 C0.01 8 -0.98 8 -2 8 C-2 7.34 -2 6.68 -2 6 C-2.99 6 -3.98 6 -5 6 C-5.33 4.68 -5.66 3.36 -6 2 C-3.525 2.495 -3.525 2.495 -1 3 C-0.67 2.01 -0.34 1.02 0 0 Z " fill="#1E50A2" transform="translate(54,196)"/>
<path d="M0 0 C3.96 0 7.92 0 12 0 C12 2.31 12 4.62 12 7 C11.67 7 11.34 7 11 7 C11 5.02 11 3.04 11 1 C8.36 1.33 5.72 1.66 3 2 C3 2.66 3 3.32 3 4 C2.34 4 1.68 4 1 4 C1 4.99 1 5.98 1 7 C3.31 7 5.62 7 8 7 C8 7.33 8 7.66 8 8 C5.36 8 2.72 8 0 8 C0 5.36 0 2.72 0 0 Z " fill="#5F7CB3" transform="translate(243,174)"/>
<path d="M0 0 C4.62 0 9.24 0 14 0 C14 0.33 14 0.66 14 1 C10.7 1 7.4 1 4 1 C4 4.63 4 8.26 4 12 C3.67 12 3.34 12 3 12 C3 9.69 3 7.38 3 5 C2.01 5 1.02 5 0 5 C0 3.35 0 1.7 0 0 Z " fill="#C7E2F5" transform="translate(115,173)"/>
<path d="M0 0 C0.66 0 1.32 0 2 0 C3.0161692 4.62921525 2.83796731 8.34462607 2 13 C1.34 12.67 0.68 12.34 0 12 C-0.44921875 9.78515625 -0.44921875 9.78515625 -0.6875 7.0625 C-0.81705078 5.71865234 -0.81705078 5.71865234 -0.94921875 4.34765625 C-1 2 -1 2 0 0 Z " fill="#1F4EA6" transform="translate(56,152)"/>
<path d="M0 0 C2 3.875 2 3.875 2 5 C3.65 5.33 5.3 5.66 7 6 C5.515 8.475 5.515 8.475 4 11 C0.66442368 8.0094833 -1.15083921 5.06815373 -3 1 C-2.01 0.67 -1.02 0.34 0 0 Z " fill="#DCEEF9" transform="translate(144,146)"/>
<path d="M0 0 C1.40664926 0.14492123 2.8181133 0.24628931 4.23046875 0.31640625 C5.43413086 0.37924805 5.43413086 0.37924805 6.66210938 0.44335938 C7.49548828 0.48267578 8.32886719 0.52199219 9.1875 0.5625 C10.03248047 0.60568359 10.87746094 0.64886719 11.74804688 0.69335938 C13.83184433 0.79931518 15.91590103 0.9001502 18 1 C18 1.33 18 1.66 18 2 C17.42032471 2.02505615 16.84064941 2.0501123 16.2434082 2.07592773 C13.59957893 2.19246234 10.95605591 2.31492682 8.3125 2.4375 C6.94448242 2.49647461 6.94448242 2.49647461 5.54882812 2.55664062 C4.66259766 2.59853516 3.77636719 2.64042969 2.86328125 2.68359375 C2.05157471 2.72025146 1.23986816 2.75690918 0.40356445 2.79467773 C-2.12144485 3.01037431 -4.52600697 3.45899452 -7 4 C-6.6875 2.0625 -6.6875 2.0625 -6 0 C-3 -1 -3 -1 0 0 Z " fill="#CFDDED" transform="translate(88,100)"/>
<path d="M0 0 C0.33 0.99 0.66 1.98 1 3 C2.32 3 3.64 3 5 3 C5 4.32 5 5.64 5 7 C2.69 7 0.38 7 -2 7 C-2.33 5.68 -2.66 4.36 -3 3 C-2.01 2.67 -1.02 2.34 0 2 C0 1.34 0 0.68 0 0 Z " fill="#234DA4" transform="translate(234,176)"/>
<path d="M0 0 C3.3 0 6.6 0 10 0 C9.01 0.495 9.01 0.495 8 1 C8 2.98 8 4.96 8 7 C7.34 7 6.68 7 6 7 C6 5.35 6 3.7 6 2 C4.35 2 2.7 2 1 2 C1 4.64 1 7.28 1 10 C0.67 10 0.34 10 0 10 C0 6.7 0 3.4 0 0 Z " fill="#3E5998" transform="translate(104,174)"/>
<path d="M0 0 C0.99 0.33 1.98 0.66 3 1 C1.63016497 4.16115776 1.0109362 4.9927092 -2 7 C-4.4453125 7.046875 -4.4453125 7.046875 -7.125 6.75 C-8.01445312 6.66234375 -8.90390625 6.5746875 -9.8203125 6.484375 C-10.53960937 6.32453125 -11.25890625 6.1646875 -12 6 C-12.33 5.34 -12.66 4.68 -13 4 C-9.37 4 -5.74 4 -2 4 C-1.34 2.68 -0.68 1.36 0 0 Z " fill="#305497" transform="translate(229,150)"/>
<path d="M0 0 C2.0625 1.75 2.0625 1.75 4 4 C4.13713358 8.11400728 0.56269327 11.10875631 -2 14 C-2.99 13.67 -3.98 13.34 -5 13 C-4.25 11.0625 -4.25 11.0625 -3 9 C-0.875 8.25 -0.875 8.25 1 8 C0.67 5.36 0.34 2.72 0 0 Z " fill="#3A5792" transform="translate(62,120)"/>
<path d="M0 0 C1.65 0 3.3 0 5 0 C5 1.98 5 3.96 5 6 C3.35 6.66 1.7 7.32 0 8 C0 5.36 0 2.72 0 0 Z " fill="#F9F7FD" transform="translate(97,178)"/>
<path d="M0 0 C0.66 0.33 1.32 0.66 2 1 C1.125 6.75 1.125 6.75 0 9 C-2.875 8.6875 -2.875 8.6875 -6 8 C-6.66 7.01 -7.32 6.02 -8 5 C-7.01 4.67 -6.02 4.34 -5 4 C-5 4.66 -5 5.32 -5 6 C-3.68 6 -2.36 6 -1 6 C-0.67 4.02 -0.34 2.04 0 0 Z " fill="#416298" transform="translate(74,194)"/>
<path d="M0 0 C1.32 0 2.64 0 4 0 C4 1.32 4 2.64 4 4 C5.32 4.33 6.64 4.66 8 5 C6.33388095 5.042721 4.66617115 5.04063832 3 5 C2.67 4.67 2.34 4.34 2 4 C1.34 5.98 0.68 7.96 0 10 C-0.99 9.67 -1.98 9.34 -3 9 C-3.6875 6.9375 -3.6875 6.9375 -4 5 C-2.68 5 -1.36 5 0 5 C0 3.35 0 1.7 0 0 Z " fill="#D2DFF1" transform="translate(137,181)"/>
<path d="M0 0 C1.32 0 2.64 0 4 0 C4 0.66 4 1.32 4 2 C4.99 2.33 5.98 2.66 7 3 C4.4345406 5.5654594 2.52313332 5.54046087 -1 6 C-1.042721 4.33388095 -1.04063832 2.66617115 -1 1 C-0.67 0.67 -0.34 0.34 0 0 Z " fill="#234E90" transform="translate(134,166)"/>
<path d="M0 0 C0.86149062 2.42089768 1.13536809 3.62096934 0.2578125 6.078125 C-0.30292969 7.15320313 -0.30292969 7.15320313 -0.875 8.25 C-2.96504816 12.59585877 -3.65143476 16.20722789 -4 21 C-6 18 -6 18 -5.8984375 15.80078125 C-4.67058101 9.96388138 -2.89904509 5.21828116 0 0 Z " fill="#A7C3F4" transform="translate(55,139)"/>
<path d="M0 0 C0.721875 0.12375 1.44375 0.2475 2.1875 0.375 C2.1875 1.035 2.1875 1.695 2.1875 2.375 C2.8475 2.705 3.5075 3.035 4.1875 3.375 C1.1875 4.375 1.1875 4.375 -1.8125 3.375 C-1.8125 4.035 -1.8125 4.695 -1.8125 5.375 C-3.7925 5.705 -5.7725 6.035 -7.8125 6.375 C-3.50480769 0.46730769 -3.50480769 0.46730769 0 0 Z " fill="#335790" transform="translate(57.8125,116.625)"/>
<path d="M0 0 C0.33 0 0.66 0 1 0 C1 1.98 1 3.96 1 6 C-4.75 6.125 -4.75 6.125 -7 5 C-7 4.01 -7 3.02 -7 2 C-4.69 2 -2.38 2 0 2 C0 1.34 0 0.68 0 0 Z " fill="#284B8D" transform="translate(217,165)"/>
<path d="M0 0 C0.99 0 1.98 0 3 0 C3 0.99 3 1.98 3 3 C3.66 3 4.32 3 5 3 C5 3.66 5 4.32 5 5 C2.69 5.33 0.38 5.66 -2 6 C-2.33 5.34 -2.66 4.68 -3 4 C-1.6875 2 -1.6875 2 0 0 Z " fill="#224EAA" transform="translate(128,133)"/>
<path d="M0 0 C-0.99 0.33 -1.98 0.66 -3 1 C-3.309375 1.66 -3.61875 2.32 -3.9375 3 C-5 5 -5 5 -6.6875 5.75 C-9.80146062 6.08664439 -12.87107191 6.06017169 -16 6 C-12.73177309 3.82118206 -9.76372695 2.90848582 -6 2 C-6 1.34 -6 0.68 -6 0 C-3.50907189 -1.24546405 -2.58919267 -0.7767578 0 0 Z " fill="#204798" transform="translate(101,191)"/>
<path d="M0 0 C0.598125 0.226875 1.19625 0.45375 1.8125 0.6875 C0.76375002 3.30937494 0.16318687 4.48121361 -2.3125 5.9375 C-2.93125 6.185 -3.55 6.4325 -4.1875 6.6875 C-4.875 4.875 -4.875 4.875 -5.1875 2.6875 C-3.58493056 0.24147296 -2.95482043 -0.4221172 0 0 Z " fill="#3C53A3" transform="translate(77.1875,183.3125)"/>
<path d="M0 0 C0.99 0 1.98 0 3 0 C2.67 1.65 2.34 3.3 2 5 C1.34 5 0.68 5 0 5 C0 5.99 0 6.98 0 8 C-1.32 8 -2.64 8 -4 8 C-4 6.68 -4 5.36 -4 4 C-2.68 4 -1.36 4 0 4 C0 2.68 0 1.36 0 0 Z " fill="#7A97CB" transform="translate(200,174)"/>
<path d="M0 0 C3.96 0 7.92 0 12 0 C11.67 1.32 11.34 2.64 11 4 C11 3.01 11 2.02 11 1 C9.6696875 1.4640625 9.6696875 1.4640625 8.3125 1.9375 C5.53290845 2.8290671 2.86863625 3.49377007 0 4 C0 2.68 0 1.36 0 0 Z " fill="#4D6297" transform="translate(89,174)"/>
<path d="M0 0 C0.33 0.66 0.66 1.32 1 2 C-0.25 3.5625 -0.25 3.5625 -2 5 C-3.9375 4.6875 -3.9375 4.6875 -6 4 C-7.32 4 -8.64 4 -10 4 C-10 3.01 -10 2.02 -10 1 C-6.7 0.67 -3.4 0.34 0 0 Z " fill="#1F4E91" transform="translate(202,165)"/>
<path d="M0 0 C0.66 0.33 1.32 0.66 2 1 C2 2.65 2 4.3 2 6 C2.66 6 3.32 6 4 6 C4 6.66 4 7.32 4 8 C1.69 8 -0.62 8 -3 8 C-2.45276317 4.62537285 -1.9451 2.91765 0 0 Z " fill="#305492" transform="translate(69,143)"/>
<path d="M0 0 C3.63 0 7.26 0 11 0 C11 0.66 11 1.32 11 2 C7.78548731 3.60725635 4.56387464 3.05748185 1 3 C0.67 2.01 0.34 1.02 0 0 Z " fill="#234AAD" transform="translate(96,104)"/>
<path d="M0 0 C0.33 0 0.66 0 1 0 C1 2.31 1 4.62 1 7 C1.66 7 2.32 7 3 7 C3 8.65 3 10.3 3 12 C0 11 0 11 -1.25 9.3125 C-2.24580571 6.24209906 -1.75782092 4.10017651 -1 1 C-0.67 0.67 -0.34 0.34 0 0 Z " fill="#EDFAFB" transform="translate(205,178)"/>
<path d="M0 0 C2.4375 1.1875 2.4375 1.1875 5 3 C5.8125 5.6875 5.8125 5.6875 6 8 C5.01 8 4.02 8 3 8 C3 7.34 3 6.68 3 6 C2.34 6 1.68 6 1 6 C1 5.34 1 4.68 1 4 C0.01 3.67 -0.98 3.34 -2 3 C-1.34 2.67 -0.68 2.34 0 2 C0 1.34 0 0.68 0 0 Z " fill="#345799" transform="translate(69,189)"/>
<path d="M0 0 C2.31 0 4.62 0 7 0 C7 1.98 7 3.96 7 6 C5.68 5.67 4.36 5.34 3 5 C3 4.01 3 3.02 3 2 C2.01 1.67 1.02 1.34 0 1 C0 0.67 0 0.34 0 0 Z " fill="#294B8B" transform="translate(102,158)"/>
<path d="M0 0 C1.32 1.32 2.64 2.64 4 4 C4.33 3.01 4.66 2.02 5 1 C5 3.31 5 5.62 5 8 C3.35 8 1.7 8 0 8 C0 5.36 0 2.72 0 0 Z " fill="#DDEEFB" transform="translate(241,147)"/>
<path d="M0 0 C0.99 0.33 1.98 0.66 3 1 C2.29445932 4.66881155 0.72264494 7.70450534 -1 11 C-1.66 10.01 -2.32 9.02 -3 8 C-2.24451463 5.1524013 -1.31613642 2.63227284 0 0 Z " fill="#3B5C9E" transform="translate(41,135)"/>
<path d="M0 0 C6.75 -0.125 6.75 -0.125 9 1 C9.72693904 2.97888961 10.39816251 4.97954558 11 7 C10.01 7.33 9.02 7.66 8 8 C8 6.35 8 4.7 8 3 C7.05125 2.87625 6.1025 2.7525 5.125 2.625 C2 2 2 2 0 0 Z " fill="#C9DEF1" transform="translate(113,103)"/>
<path d="M0 0 C0.33 1.32 0.66 2.64 1 4 C-5.28571429 6.42857143 -5.28571429 6.42857143 -9 5 C-9 4.34 -9 3.68 -9 3 C-8.43410156 2.86722656 -7.86820313 2.73445312 -7.28515625 2.59765625 C-6.18494141 2.33275391 -6.18494141 2.33275391 -5.0625 2.0625 C-4.33160156 1.88847656 -3.60070312 1.71445313 -2.84765625 1.53515625 C-1.00030102 1.16112431 -1.00030102 1.16112431 0 0 Z " fill="#E8F3FB" transform="translate(255,183)"/>
<path d="M0 0 C0.66 0.33 1.32 0.66 2 1 C2.625 3.5625 2.625 3.5625 3 6 C1.68 6.33 0.36 6.66 -1 7 C-1.5534764 4.92446352 -2 3.15634036 -2 1 C-1.34 0.67 -0.68 0.34 0 0 Z " fill="#224F97" transform="translate(118,126)"/>
<path d="M0 0 C1.35439668 2.70879335 1.06501451 5.00933268 1 8 C0.34 8 -0.32 8 -1 8 C-1 7.01 -1 6.02 -1 5 C-1.99 5 -2.98 5 -4 5 C-4 3.68 -4 2.36 -4 1 C-2 0 -2 0 0 0 Z " fill="#204C9A" transform="translate(62,120)"/>
<path d="M0 0 C0.33 0.99 0.66 1.98 1 3 C2.88316159 4.10836423 2.88316159 4.10836423 5 5 C5.99 5.66 6.98 6.32 8 7 C7.67 7.99 7.34 8.98 7 10 C5.68388323 9.04663979 4.37221039 8.08714226 3.0625 7.125 C2.33160156 6.59132812 1.60070313 6.05765625 0.84765625 5.5078125 C-1 4 -1 4 -2 2 C-1.34 2 -0.68 2 0 2 C0 1.34 0 0.68 0 0 Z " fill="#3A589A" transform="translate(52,204)"/>
<path d="M0 0 C4.13621084 3.3810038 7.81316569 6.66590534 11 11 C8 11 8 11 5.5625 8.8125 C3.25716434 6.28225355 1.09014094 3.70944196 -1 1 C-0.67 0.67 -0.34 0.34 0 0 Z " fill="#B6D7F4" transform="translate(59,192)"/>
<path d="M0 0 C1.32 0 2.64 0 4 0 C4 2.97 4 5.94 4 9 C4.66 9.33 5.32 9.66 6 10 C4.02 10 2.04 10 0 10 C0.33 9.34 0.66 8.68 1 8 C1.66 8 2.32 8 3 8 C2.01 5.36 1.02 2.72 0 0 Z " fill="#E3F5FE" transform="translate(89,178)"/>
<path d="M0 0 C5.75 -0.125 5.75 -0.125 8 1 C8 2.32 8 3.64 8 5 C4.7 5 1.4 5 -2 5 C-2 4.67 -2 4.34 -2 4 C0.31 4 2.62 4 5 4 C3.74458443 1.48916886 2.49936512 1.12874554 0 0 Z " fill="#5C72A7" transform="translate(122,181)"/>
<path d="M0 0 C3.3 0.33 6.6 0.66 10 1 C7.6084939 3.3915061 6.28552716 3.51919115 3 4 C2.01 4 1.02 4 0 4 C0 2.68 0 1.36 0 0 Z " fill="#2F56AE" transform="translate(150,166)"/>
<path d="M0 0 C2.3125 0.1875 2.3125 0.1875 5 1 C6.875 3.3125 6.875 3.3125 8 6 C7.6875 8.3125 7.6875 8.3125 7 10 C5.5 8.75 5.5 8.75 4 7 C4 5.68 4 4.36 4 3 C3.34 3 2.68 3 2 3 C2 2.34 2 1.68 2 1 C1.34 0.67 0.68 0.34 0 0 Z " fill="#455FA0" transform="translate(224,162)"/>
<path d="M0 0 C1.20628008 2.33214148 2.1654738 4.49642139 3 7 C6.3 6.67 9.6 6.34 13 6 C13 6.66 13 7.32 13 8 C8.71 8 4.42 8 0 8 C0 5.36 0 2.72 0 0 Z " fill="#384F82" transform="translate(35,157)"/>
<path d="M0 0 C0.66 0 1.32 0 2 0 C2 1.98 2 3.96 2 6 C1.05125 5.979375 0.1025 5.95875 -0.875 5.9375 C-3.90666283 5.77448174 -3.90666283 5.77448174 -6 7 C-6.66 6.34 -7.32 5.68 -8 5 C-6.576875 4.87625 -6.576875 4.87625 -5.125 4.75 C-1.89538209 4.34925077 -1.89538209 4.34925077 -0.625 1.9375 C-0.41875 1.298125 -0.2125 0.65875 0 0 Z " fill="#E9F1F3" transform="translate(94,137)"/>
<path d="M0 0 C0.33 2.64 0.66 5.28 1 8 C0.01 8 -0.98 8 -2 8 C-2 5.69 -2 3.38 -2 1 C-3.98 1 -5.96 1 -8 1 C-4.93251126 -0.86240388 -3.40254489 -1.2151946 0 0 Z " fill="#5166A1" transform="translate(92,131)"/>
<path d="M0 0 C0.99 0 1.98 0 3 0 C3.66 0.99 4.32 1.98 5 3 C6.96752828 4.06246527 8.96587579 5.07137808 11 6 C10.34 6.66 9.68 7.32 9 8 C7.67968405 7.43457996 6.3688699 6.84693528 5.0625 6.25 C3.96615234 5.76273437 3.96615234 5.76273437 2.84765625 5.265625 C1 4 1 4 0.24609375 1.859375 C0.16488281 1.24578125 0.08367187 0.6321875 0 0 Z " fill="#DFF0F9" transform="translate(117,119)"/>
<path d="M0 0 C0.66 0 1.32 0 2 0 C2 0.66 2 1.32 2 2 C2.66 2 3.32 2 4 2 C3.625 3.9375 3.625 3.9375 3 6 C2.01 6.495 2.01 6.495 1 7 C1 6.34 1 5.68 1 5 C0.01 5 -0.98 5 -2 5 C-1.34 3.35 -0.68 1.7 0 0 Z " fill="#204F97" transform="translate(210,176)"/>
<path d="M0 0 C3.63 0 7.26 0 11 0 C9.68 0.33 8.36 0.66 7 1 C6.34 3.97 5.68 6.94 5 10 C4.67 10 4.34 10 4 10 C4 7.03 4 4.06 4 1 C2.68 0.67 1.36 0.34 0 0 Z " fill="#D2EDFA" transform="translate(214,173)"/>
<path d="M0 0 C0 2.64 0 5.28 0 8 C-0.33 8 -0.66 8 -1 8 C-1 6.35 -1 4.7 -1 3 C-2.65 3 -4.3 3 -6 3 C-6 2.01 -6 1.02 -6 0 C-3.50907189 -1.24546405 -2.58919267 -0.7767578 0 0 Z " fill="#214AAD" transform="translate(255,162)"/>
<path d="M0 0 C2.31 0 4.62 0 7 0 C7.33 0.99 7.66 1.98 8 3 C5.03 3 2.06 3 -1 3 C-0.67 2.01 -0.34 1.02 0 0 Z " fill="#294C8F" transform="translate(180,182)"/>
<path d="M0 0 C0.33 1.32 0.66 2.64 1 4 C2.98 4.495 2.98 4.495 5 5 C5 5.66 5 6.32 5 7 C5.99 7.33 6.98 7.66 8 8 C5.66705225 8.04241723 3.33297433 8.04092937 1 8 C0 7 0 7 -0.0625 3.4375 C-0.041875 2.303125 -0.02125 1.16875 0 0 Z " fill="#B8CFE4" transform="translate(181,174)"/>
<path d="M0 0 C0.66 0.33 1.32 0.66 2 1 C2 3.97 2 6.94 2 10 C1.01 10 0.02 10 -1 10 C-1.125 3.375 -1.125 3.375 0 0 Z " fill="#274B91" transform="translate(164,175)"/>
<path d="M0 0 C0.33 0 0.66 0 1 0 C1 1.65 1 3.3 1 5 C1.99 5.33 2.98 5.66 4 6 C3.01 6.33 2.02 6.66 1 7 C1 7.66 1 8.32 1 9 C1.99 9.33 2.98 9.66 4 10 C3.34 10 2.68 10 2 10 C1.67 10.66 1.34 11.32 1 12 C-1.23551759 8.64672361 -1.17283528 8.09256343 -0.625 4.3125 C-0.51414063 3.50425781 -0.40328125 2.69601563 -0.2890625 1.86328125 C-0.19367188 1.24839844 -0.09828125 0.63351563 0 0 Z " fill="#2E5696" transform="translate(208,157)"/>
<path d="M0 0 C0.33 0 0.66 0 1 0 C1.3125 2.6875 1.3125 2.6875 1 6 C-1.5 8.875 -1.5 8.875 -4 11 C-4.66 10.67 -5.32 10.34 -6 10 C-5.525625 9.608125 -5.05125 9.21625 -4.5625 8.8125 C-2.64051301 6.58299509 -2.51273969 4.85669256 -2 2 C-1.34 1.34 -0.68 0.68 0 0 Z " fill="#DCE8F4" transform="translate(68,120)"/>
<path d="M0 0 C0.66 0 1.32 0 2 0 C2 1.98 2 3.96 2 6 C-0.97 6 -3.94 6 -7 6 C-5 5 -3 4 -1 3 C-0.67 2.01 -0.34 1.02 0 0 Z " fill="#304A88" transform="translate(101,192)"/>
<path d="M0 0 C2 1 2 1 4 4 C3.96856707 6.73990408 3.44521663 9.28417854 3 12 C2.67 12 2.34 12 2 12 C2 9.36 2 6.72 2 4 C0.35 4 -1.3 4 -3 4 C-2.34 3.67 -1.68 3.34 -1 3 C-0.67 2.01 -0.34 1.02 0 0 Z " fill="#3F58A5" transform="translate(244,160)"/>
<path d="M0 0 C0.99 0 1.98 0 3 0 C3 2.64 3 5.28 3 8 C2.01 7.67 1.02 7.34 0 7 C0 4.69 0 2.38 0 0 Z " fill="#304F8F" transform="translate(214,156)"/>
<path d="M0 0 C0 0.66 0 1.32 0 2 C-0.969375 2.12375 -1.93875 2.2475 -2.9375 2.375 C-3.948125 2.58125 -4.95875 2.7875 -6 3 C-6.33 3.66 -6.66 4.32 -7 5 C-7.33 3.68 -7.66 2.36 -8 1 C-4.93251126 -0.86240388 -3.40254489 -1.2151946 0 0 Z " fill="#1F4B9E" transform="translate(142,149)"/>
<path d="M0 0 C1.7074998 1.28062485 3.37373596 2.61767557 5 4 C5 4.66 5 5.32 5 6 C5.99 6.33 6.98 6.66 8 7 C7.01 7.33 6.02 7.66 5 8 C2.5 5.6875 2.5 5.6875 0 3 C0 2.01 0 1.02 0 0 Z " fill="#3D6098" transform="translate(59,195)"/>
<path d="M0 0 C1.98 0 3.96 0 6 0 C6.33 0.99 6.66 1.98 7 3 C4.36 3 1.72 3 -1 3 C-0.67 2.01 -0.34 1.02 0 0 Z " fill="#254F97" transform="translate(120,182)"/>
<path d="M0 0 C0.99 0.33 1.98 0.66 3 1 C3 2.32 3 3.64 3 5 C3.66 5 4.32 5 5 5 C5 6.65 5 8.3 5 10 C1.55783328 7.3401439 1.00495326 4.09711714 0 0 Z " fill="#3E5E95" transform="translate(53,179)"/>
<path d="M0 0 C0.33 0 0.66 0 1 0 C1 3.3 1 6.6 1 10 C0.01 10 -0.98 10 -2 10 C-1.85950482 8.52031676 -1.71245174 7.04125484 -1.5625 5.5625 C-1.48128906 4.73878906 -1.40007812 3.91507813 -1.31640625 3.06640625 C-1 1 -1 1 0 0 Z " fill="#E4FAFF" transform="translate(220,176)"/>
<path d="M0 0 C0.66 0 1.32 0 2 0 C2 3.96 2 7.92 2 12 C1.01 12 0.02 12 -1 12 C-1 11.34 -1 10.68 -1 10 C-0.34 10 0.32 10 1 10 C0.84402344 9.36191406 0.68804687 8.72382813 0.52734375 8.06640625 C0.33269531 7.24011719 0.13804687 6.41382813 -0.0625 5.5625 C-0.25972656 4.73878906 -0.45695313 3.91507813 -0.66015625 3.06640625 C-0.82837891 2.04353516 -0.82837891 2.04353516 -1 1 C-0.67 0.67 -0.34 0.34 0 0 Z " fill="#2F4C86" transform="translate(157,173)"/>
<path d="M0 0 C0.99 1.485 0.99 1.485 2 3 C3.32 2.67 4.64 2.34 6 2 C4.68 4.31 3.36 6.62 2 9 C1.34 8.67 0.68 8.34 0 8 C0 5.36 0 2.72 0 0 Z " fill="#BED2EC" transform="translate(205,147)"/>
<path d="M0 0 C2.97 0.495 2.97 0.495 6 1 C6.33 1.99 6.66 2.98 7 4 C6.01 4.33 5.02 4.66 4 5 C1.8125 3.6875 1.8125 3.6875 0 2 C0 1.34 0 0.68 0 0 Z " fill="#EEF4F3" transform="translate(207,144)"/>
<path d="M0 0 C0.66 0.33 1.32 0.66 2 1 C-0.87494471 4.98069267 -3.82117329 7.43571997 -8 10 C-6.44303593 6.17836093 -3.96591316 3.81381505 -1 1 C-0.67 0.67 -0.34 0.34 0 0 Z " fill="#D0E0F4" transform="translate(84,143)"/>
<path d="M0 0 C0.66 0 1.32 0 2 0 C2.125 7.75 2.125 7.75 1 10 C0.34 10 -0.32 10 -1 10 C-1.125 2.25 -1.125 2.25 0 0 Z " fill="#2A4F8B" transform="translate(85,213)"/>
<path d="M0 0 C2.97 0.99 5.94 1.98 9 3 C8.67 3.66 8.34 4.32 8 5 C5.69 4.67 3.38 4.34 1 4 C0.67 2.68 0.34 1.36 0 0 Z " fill="#3C5A94" transform="translate(75,208)"/>
<path d="M0 0 C4.29 0.33 8.58 0.66 13 1 C13 1.33 13 1.66 13 2 C5.73846154 4.21538462 5.73846154 4.21538462 2 3.125 C1.34 2.75375 0.68 2.3825 0 2 C0 1.34 0 0.68 0 0 Z " fill="#3E5E96" transform="translate(89,188)"/>
<path d="M0 0 C2.31 1.98 4.62 3.96 7 6 C6.01 7.485 6.01 7.485 5 9 C4.67 8.01 4.34 7.02 4 6 C2.68352881 5.30062468 1.34977849 4.63270867 0 4 C-0.33 3.34 -0.66 2.68 -1 2 C-0.67 1.34 -0.34 0.68 0 0 Z " fill="#D6EDFB" transform="translate(70,186)"/>
<path d="M0 0 C0.5625 1.9375 0.5625 1.9375 1 4 C0 5 0 5 -2.06640625 5.09765625 C-2.89011719 5.08605469 -3.71382813 5.07445312 -4.5625 5.0625 C-5.38878906 5.05347656 -6.21507813 5.04445312 -7.06640625 5.03515625 C-7.70449219 5.02355469 -8.34257813 5.01195312 -9 5 C-5.77208445 2.8480563 -4.71599191 2.79913557 -1 3 C-0.67 2.01 -0.34 1.02 0 0 Z " fill="#56689E" transform="translate(72,162)"/>
<path d="M0 0 C0 0.66 0 1.32 0 2 C-3.3 2 -6.6 2 -10 2 C-10 1.34 -10 0.68 -10 0 C-6.42355152 -1.2380014 -3.66305234 -0.74926071 0 0 Z " fill="#2B4E8A" transform="translate(111,153)"/>
<path d="M0 0 C2.475 0.495 2.475 0.495 5 1 C4.67 2.32 4.34 3.64 4 5 C2.68 4.67 1.36 4.34 0 4 C0 2.68 0 1.36 0 0 Z " fill="#FCFEED" transform="translate(116,137)"/>
<path d="M0 0 C3.375 -0.1875 3.375 -0.1875 7 0 C7.66 0.99 8.32 1.98 9 3 C7.3125 3.6875 7.3125 3.6875 5 4 C2.25 2.625 2.25 2.625 0 1 C0 0.67 0 0.34 0 0 Z " fill="#436099" transform="translate(78,193)"/>
<path d="M0 0 C1.99954746 -0.04254356 4.00041636 -0.04080783 6 0 C7 1 7 1 7.0625 4.0625 C7.041875 5.031875 7.02125 6.00125 7 7 C6.690625 6.0409375 6.690625 6.0409375 6.375 5.0625 C5.10461791 2.65074923 5.10461791 2.65074923 1.875 2.25 C0.92625 2.1675 -0.0225 2.085 -1 2 C-0.67 1.34 -0.34 0.68 0 0 Z " fill="#294992" transform="translate(180,153)"/>
<path d="M0 0 C-0.33 1.65 -0.66 3.3 -1 5 C-2.65 4.67 -4.3 4.34 -6 4 C-6 3.34 -6 2.68 -6 2 C-2.25 0 -2.25 0 0 0 Z " fill="#2C518F" transform="translate(133,138)"/>
<path d="M0 0 C1.65 0 3.3 0 5 0 C5.73080266 1.97746603 6.39421747 3.98072489 7 6 C6.67 6.66 6.34 7.32 6 8 C4.02 5.36 2.04 2.72 0 0 Z " fill="#E8F4FD" transform="translate(129,128)"/>
<path d="M0 0 C1.32 0.66 2.64 1.32 4 2 C4 2.66 4 3.32 4 4 C4.99 4.33 5.98 4.66 7 5 C5.125 5.625 5.125 5.625 3 6 C1 4 1 4 -1 1 C-0.67 0.67 -0.34 0.34 0 0 Z " fill="#3E5694" transform="translate(67,203)"/>
<path d="M0 0 C3.3 0.33 6.6 0.66 10 1 C9.67 1.99 9.34 2.98 9 4 C4.545 3.01 4.545 3.01 0 2 C0 1.34 0 0.68 0 0 Z " fill="#EDFCFD" transform="translate(103,185)"/>
<path d="M0 0 C2.91517292 1.07401108 4.77810176 1.77810176 7 4 C4.03 4 1.06 4 -2 4 C-1.34 3.67 -0.68 3.34 0 3 C0 2.01 0 1.02 0 0 Z " fill="#E2EFFB" transform="translate(152,183)"/>
<path d="M0 0 C1.5 1.1875 1.5 1.1875 3 3 C3.1875 5.6875 3.1875 5.6875 3 8 C2.01 8 1.02 8 0 8 C0 5.36 0 2.72 0 0 Z " fill="#1B5391" transform="translate(56,168)"/>
<path d="M0 0 C2.64 0 5.28 0 8 0 C8 0.99 8 1.98 8 3 C5.36 3 2.72 3 0 3 C0 2.01 0 1.02 0 0 Z " fill="#274BA9" transform="translate(191,168)"/>
<path d="M0 0 C1.65 0 3.3 0 5 0 C4.67 1.32 4.34 2.64 4 4 C2.68 4 1.36 4 0 4 C0 2.68 0 1.36 0 0 Z " fill="#274AA9" transform="translate(144,164)"/>
<path d="M0 0 C2.09219926 2.78959901 3.57568513 4.93224489 5 8 C4.01 8 3.02 8 2 8 C1.67 8.66 1.34 9.32 1 10 C0.67 6.7 0.34 3.4 0 0 Z " fill="#325B8B" transform="translate(142,149)"/>
<path d="M0 0 C0.66 0 1.32 0 2 0 C1.25 6.625 1.25 6.625 -1 10 C-1.33 8.68 -1.66 7.36 -2 6 C-1.34 6 -0.68 6 0 6 C-0.2784375 4.7934375 -0.2784375 4.7934375 -0.5625 3.5625 C-0.706875 2.716875 -0.85125 1.87125 -1 1 C-0.67 0.67 -0.34 0.34 0 0 Z " fill="#4562A0" transform="translate(62,145)"/>
<path d="M0 0 C0.66 0 1.32 0 2 0 C1.34 3.63 0.68 7.26 0 11 C-0.33 11 -0.66 11 -1 11 C-1.02688151 9.35425434 -1.04634123 7.70838587 -1.0625 6.0625 C-1.07410156 5.14597656 -1.08570313 4.22945312 -1.09765625 3.28515625 C-1 1 -1 1 0 0 Z " fill="#DEF0FA" transform="translate(36,141)"/>
<path d="M0 0 C0 0.66 0 1.32 0 2 C-3 4 -3 4 -7 4 C-7 3.01 -7 2.02 -7 1 C-4.50935112 0.31292445 -2.62113708 0 0 0 Z " fill="#1A4BA3" transform="translate(88,134)"/>
<path d="M0 0 C1.98 1.65 3.96 3.3 6 5 C5.67 5.99 5.34 6.98 5 8 C4.34 8 3.68 8 3 8 C2.67 7.01 2.34 6.02 2 5 C1.34 4.67 0.68 4.34 0 4 C0 2.68 0 1.36 0 0 Z " fill="#4865A0" transform="translate(128,128)"/>
<path d="M0 0 C3.875 4.75 3.875 4.75 5 7 C3.02 7.99 3.02 7.99 1 9 C0.67 6.03 0.34 3.06 0 0 Z " fill="#3D5AA3" transform="translate(63,180)"/>
<path d="M0 0 C2.31 0.33 4.62 0.66 7 1 C6.67 1.66 6.34 2.32 6 3 C4.02 3 2.04 3 0 3 C0 2.01 0 1.02 0 0 Z " fill="#324E93" transform="translate(243,182)"/>
<path d="M0 0 C1.32 0 2.64 0 4 0 C4 1.32 4 2.64 4 4 C2.02 4 0.04 4 -2 4 C-1.34 3.67 -0.68 3.34 0 3 C0 2.01 0 1.02 0 0 Z " fill="#A0C2D6" transform="translate(166,178)"/>
<path d="M0 0 C1.80330533 3.60661066 2.46599103 6.08393425 3 10 C2.01 9.67 1.02 9.34 0 9 C0 6.03 0 3.06 0 0 Z " fill="#184DA8" transform="translate(172,159)"/>
<path d="M0 0 C0.66 0 1.32 0 2 0 C1.67 1.65 1.34 3.3 1 5 C-0.32 5.33 -1.64 5.66 -3 6 C-3 4.68 -3 3.36 -3 2 C-2.34 2 -1.68 2 -1 2 C-0.67 1.34 -0.34 0.68 0 0 Z " fill="#EEF5FD" transform="translate(151,146)"/>
<path d="M0 0 C2.31 0 4.62 0 7 0 C5.625 2 5.625 2 4 4 C3.34 4 2.68 4 2 4 C1.34 2.68 0.68 1.36 0 0 Z " fill="#D0E2EF" transform="translate(94,199)"/>
<path d="M0 0 C0.33 0.66 0.66 1.32 1 2 C0.67 2.66 0.34 3.32 0 4 C-4.75 3.25 -4.75 3.25 -7 1 C-3.535 0.505 -3.535 0.505 0 0 Z " fill="#F3FBEE" transform="translate(173,187)"/>
<path d="M0 0 C1.84765625 0.33984375 1.84765625 0.33984375 4.0625 0.9375 C5.16271484 1.22947266 5.16271484 1.22947266 6.28515625 1.52734375 C7.13400391 1.76130859 7.13400391 1.76130859 8 2 C8 2.66 8 3.32 8 4 C4.85375007 4.26218749 3.38162983 4.24754367 0.6875 2.5 C0.130625 2.005 -0.42625 1.51 -1 1 C-0.67 0.67 -0.34 0.34 0 0 Z " fill="#F6FDEF" transform="translate(102,186)"/>
<path d="M0 0 C0.33 0.66 0.66 1.32 1 2 C0.01 3.485 0.01 3.485 -1 5 C-3.64 4.67 -6.28 4.34 -9 4 C-9 3.67 -9 3.34 -9 3 C-7.88625 2.87625 -6.7725 2.7525 -5.625 2.625 C-1.96896323 2.3534187 -1.96896323 2.3534187 0 0 Z " fill="#DCECF9" transform="translate(174,183)"/>
<path d="M0 0 C0.99 0 1.98 0 3 0 C3 0.66 3 1.32 3 2 C4.32 2.66 5.64 3.32 7 4 C5.02 4 3.04 4 1 4 C0.67 2.68 0.34 1.36 0 0 Z " fill="#29499C" transform="translate(208,181)"/>
<path d="M0 0 C2.625 -0.1875 2.625 -0.1875 5 0 C5 0.99 5 1.98 5 3 C2.69 3 0.38 3 -2 3 C-1.34 2.01 -0.68 1.02 0 0 Z " fill="#2F4A8D" transform="translate(95,175)"/>
<path d="M0 0 C1.65 0 3.3 0 5 0 C4.67 1.32 4.34 2.64 4 4 C3.01 4 2.02 4 1 4 C0.67 2.68 0.34 1.36 0 0 Z " fill="#2248B0" transform="translate(137,164)"/>
<path d="M0 0 C2 3 2 3 1.625 6.1875 C1.41875 7.115625 1.2125 8.04375 1 9 C0.34 9 -0.32 9 -1 9 C-1.125 2.25 -1.125 2.25 0 0 Z " fill="#3E5D8A" transform="translate(207,154)"/>
<path d="M0 0 C-0.61875 0.598125 -1.2375 1.19625 -1.875 1.8125 C-4.13676954 4.00811144 -4.13676954 4.00811144 -6 7 C-6 4.69 -6 2.38 -6 0 C-3 -1 -3 -1 0 0 Z " fill="#CBDFF4" transform="translate(223,156)"/>
<path d="M0 0 C2.475 0.99 2.475 0.99 5 2 C5 2.99 5 3.98 5 5 C2.03 4.505 2.03 4.505 -1 4 C-0.67 2.68 -0.34 1.36 0 0 Z " fill="#E7F4FC" transform="translate(56,138)"/>
<path d="M0 0 C0.66 0.33 1.32 0.66 2 1 C1.34 2.65 0.68 4.3 0 6 C-1.32 5.01 -2.64 4.02 -4 3 C-2.68 2.01 -1.36 1.02 0 0 Z " fill="#3F5CA2" transform="translate(80,133)"/>
</svg>
